<svg xmlns="http://www.w3.org/2000/svg" xmlns:xlink="http://www.w3.org/1999/xlink" width="2000" zoomAndPan="magnify" viewBox="0 0 1500 1499.999933" height="2000" preserveAspectRatio="xMidYMid meet" version="1.0"><defs><g/><clipPath id="ea999d70a2"><path d="M 558.421875 526.398438 L 970.171875 526.398438 L 970.171875 938.148438 L 558.421875 938.148438 Z M 558.421875 526.398438 " clip-rule="nonzero"/></clipPath><clipPath id="85dadea6ce"><rect x="0" width="331" y="0" height="367"/></clipPath><clipPath id="9e48c9d075"><rect x="0" width="361" y="0" height="367"/></clipPath></defs><g clip-path="url(#ea999d70a2)"><path fill="#1e1e1e" d="M 764.25 938.058594 C 736.46875 938.058594 709.511719 932.617188 684.128906 921.878906 C 659.621094 911.511719 637.609375 896.675781 618.707031 877.773438 C 599.804688 858.871094 584.964844 836.859375 574.601562 812.351562 C 563.863281 786.96875 558.421875 760.011719 558.421875 732.230469 C 558.421875 704.449219 563.863281 677.492188 574.601562 652.109375 C 584.964844 627.597656 599.804688 605.589844 618.707031 586.6875 C 637.609375 567.785156 659.621094 552.945312 684.128906 542.578125 C 709.511719 531.84375 736.46875 526.398438 764.25 526.398438 C 792.035156 526.398438 818.992188 531.84375 844.375 542.578125 C 868.882812 552.945312 890.894531 567.785156 909.796875 586.6875 C 928.699219 605.589844 943.539062 627.597656 953.902344 652.109375 C 964.640625 677.492188 970.082031 704.445312 970.082031 732.230469 C 970.082031 760.015625 964.640625 786.972656 953.902344 812.355469 C 943.539062 836.863281 928.699219 858.875 909.796875 877.777344 C 890.894531 896.679688 868.882812 911.515625 844.375 921.882812 C 818.992188 932.621094 792.035156 938.0625 764.25 938.0625 Z M 764.25 542.976562 C 659.894531 542.976562 574.996094 627.875 574.996094 732.230469 C 574.996094 836.589844 659.894531 921.484375 764.25 921.484375 C 868.601562 921.484375 953.5 836.585938 953.5 732.230469 C 953.5 627.878906 868.605469 542.976562 764.25 542.976562 Z M 764.25 542.976562 " fill-opacity="1" fill-rule="nonzero"/></g><path fill="#1e1e1e" d="M 784.636719 732.230469 C 784.636719 732.898438 784.605469 733.566406 784.539062 734.230469 C 784.472656 734.894531 784.375 735.554688 784.246094 736.207031 C 784.113281 736.863281 783.953125 737.511719 783.757812 738.148438 C 783.566406 738.789062 783.339844 739.414062 783.085938 740.03125 C 782.828125 740.648438 782.542969 741.253906 782.230469 741.839844 C 781.914062 742.429688 781.570312 743 781.203125 743.558594 C 780.832031 744.113281 780.433594 744.648438 780.007812 745.164062 C 779.585938 745.679688 779.136719 746.175781 778.667969 746.644531 C 778.195312 747.117188 777.699219 747.566406 777.183594 747.988281 C 776.667969 748.414062 776.132812 748.808594 775.578125 749.179688 C 775.023438 749.550781 774.449219 749.894531 773.859375 750.210938 C 773.273438 750.523438 772.667969 750.808594 772.050781 751.066406 C 771.4375 751.320312 770.808594 751.546875 770.167969 751.738281 C 769.53125 751.933594 768.882812 752.09375 768.230469 752.226562 C 767.574219 752.355469 766.914062 752.453125 766.25 752.519531 C 765.585938 752.582031 764.917969 752.617188 764.25 752.617188 C 763.585938 752.617188 762.917969 752.582031 762.253906 752.519531 C 761.589844 752.453125 760.929688 752.355469 760.273438 752.226562 C 759.621094 752.09375 758.972656 751.933594 758.335938 751.738281 C 757.695312 751.546875 757.066406 751.320312 756.449219 751.066406 C 755.832031 750.808594 755.230469 750.523438 754.640625 750.210938 C 754.054688 749.894531 753.480469 749.550781 752.925781 749.179688 C 752.371094 748.808594 751.835938 748.414062 751.320312 747.988281 C 750.804688 747.566406 750.308594 747.117188 749.835938 746.644531 C 749.367188 746.175781 748.917969 745.679688 748.492188 745.164062 C 748.070312 744.648438 747.671875 744.113281 747.300781 743.558594 C 746.929688 743 746.589844 742.429688 746.273438 741.839844 C 745.960938 741.253906 745.675781 740.648438 745.417969 740.03125 C 745.164062 739.414062 744.9375 738.789062 744.746094 738.148438 C 744.550781 737.511719 744.386719 736.863281 744.257812 736.207031 C 744.128906 735.554688 744.03125 734.894531 743.964844 734.230469 C 743.898438 733.566406 743.867188 732.898438 743.867188 732.230469 C 743.867188 731.5625 743.898438 730.898438 743.964844 730.234375 C 744.03125 729.570312 744.128906 728.910156 744.257812 728.253906 C 744.386719 727.601562 744.550781 726.953125 744.746094 726.3125 C 744.9375 725.675781 745.164062 725.046875 745.417969 724.429688 C 745.675781 723.8125 745.960938 723.210938 746.273438 722.621094 C 746.589844 722.035156 746.929688 721.460938 747.300781 720.90625 C 747.671875 720.351562 748.070312 719.816406 748.492188 719.300781 C 748.917969 718.785156 749.367188 718.289062 749.835938 717.816406 C 750.308594 717.34375 750.804688 716.898438 751.320312 716.472656 C 751.835938 716.050781 752.371094 715.652344 752.925781 715.28125 C 753.480469 714.910156 754.054688 714.570312 754.640625 714.253906 C 755.230469 713.9375 755.832031 713.652344 756.449219 713.398438 C 757.066406 713.144531 757.695312 712.917969 758.335938 712.722656 C 758.972656 712.53125 759.621094 712.367188 760.273438 712.238281 C 760.929688 712.109375 761.589844 712.011719 762.253906 711.945312 C 762.917969 711.878906 763.585938 711.847656 764.25 711.847656 C 764.917969 711.847656 765.585938 711.878906 766.25 711.945312 C 766.914062 712.011719 767.574219 712.109375 768.230469 712.238281 C 768.882812 712.367188 769.53125 712.53125 770.167969 712.722656 C 770.808594 712.917969 771.4375 713.144531 772.050781 713.398438 C 772.667969 713.652344 773.273438 713.9375 773.859375 714.253906 C 774.449219 714.570312 775.023438 714.910156 775.578125 715.28125 C 776.132812 715.652344 776.667969 716.050781 777.183594 716.472656 C 777.699219 716.898438 778.195312 717.34375 778.667969 717.816406 C 779.136719 718.289062 779.585938 718.785156 780.007812 719.300781 C 780.433594 719.816406 780.832031 720.351562 781.203125 720.90625 C 781.570312 721.460938 781.914062 722.035156 782.230469 722.621094 C 782.542969 723.210938 782.828125 723.8125 783.085938 724.429688 C 783.339844 725.046875 783.566406 725.675781 783.757812 726.3125 C 783.953125 726.953125 784.113281 727.601562 784.246094 728.253906 C 784.375 728.910156 784.472656 729.570312 784.539062 730.234375 C 784.605469 730.898438 784.636719 731.5625 784.636719 732.230469 Z M 784.636719 732.230469 " fill-opacity="1" fill-rule="nonzero"/><path fill="#1e1e1e" d="M 764.25 847.085938 C 759.671875 847.085938 755.960938 843.375 755.960938 838.796875 L 755.960938 732.035156 C 755.960938 727.453125 759.671875 723.746094 764.25 723.746094 C 768.832031 723.746094 772.542969 727.453125 772.542969 732.035156 L 772.542969 838.796875 C 772.542969 843.375 768.832031 847.085938 764.25 847.085938 Z M 764.25 847.085938 " fill-opacity="1" fill-rule="nonzero"/><path fill="#1e1e1e" d="M 764.25 737.953125 C 760.980469 737.953125 758.332031 735.300781 758.332031 732.035156 L 758.332031 609.367188 C 758.332031 606.097656 760.984375 603.449219 764.25 603.449219 C 767.519531 603.449219 770.171875 606.101562 770.171875 609.367188 L 770.171875 732.035156 C 770.171875 735.304688 767.519531 737.953125 764.25 737.953125 Z M 764.25 737.953125 " fill-opacity="1" fill-rule="nonzero"/><g transform="matrix(1, 0, 0, 1, 221, 584)"><g clip-path="url(#85dadea6ce)"><g fill="#1e1e1e" fill-opacity="1"><g transform="translate(0.511518, 285.872991)"><g><path d="M 113.40625 4.359375 C 93.4375 4.359375 75.941406 0.0507812 60.921875 -8.5625 C 45.898438 -17.1875 34.378906 -28.878906 26.359375 -43.640625 C 18.335938 -58.398438 14.328125 -74.828125 14.328125 -92.921875 C 14.328125 -110.835938 18.59375 -127.046875 27.125 -141.546875 C 35.664062 -156.054688 47.488281 -167.492188 62.59375 -175.859375 C 77.695312 -184.222656 94.632812 -188.40625 113.40625 -188.40625 C 130.125 -188.40625 145.304688 -185.117188 158.953125 -178.546875 C 172.609375 -171.972656 183.875 -162.375 192.75 -149.75 L 178.171875 -138.75 C 170.316406 -149.15625 160.882812 -157.046875 149.875 -162.421875 C 138.875 -167.796875 126.800781 -170.484375 113.65625 -170.484375 C 99.144531 -170.484375 85.789062 -167.113281 73.59375 -160.375 C 61.394531 -153.632812 51.664062 -144.25 44.40625 -132.21875 C 37.15625 -120.1875 33.53125 -106.578125 33.53125 -91.390625 C 33.53125 -76.367188 37.070312 -62.882812 44.15625 -50.9375 C 51.238281 -38.988281 60.960938 -29.601562 73.328125 -22.78125 C 85.703125 -15.957031 99.488281 -12.546875 114.6875 -12.546875 C 127.476562 -12.546875 139.289062 -15.101562 150.125 -20.21875 C 160.96875 -25.34375 170.65625 -32.9375 179.1875 -43 L 193.78125 -32 C 184.394531 -20.050781 172.832031 -11.003906 159.09375 -4.859375 C 145.351562 1.285156 130.125 4.359375 113.40625 4.359375 Z M 113.40625 4.359375 "/></g></g></g><g fill="#1e1e1e" fill-opacity="1"><g transform="translate(208.882731, 285.872991)"><g><path d="M 40.703125 -183.796875 L 40.703125 -17.921875 L 111.359375 -17.921875 L 111.359375 0 L 22.265625 0 L 22.265625 -183.796875 Z M 40.703125 -183.796875 "/></g></g></g></g></g><g fill="#1e1e1e" fill-opacity="1"><g transform="translate(567.941414, 1004.300509)"><g><path d="M 3.1875 0 L 3.1875 -28.15625 L 13.453125 -28.15625 C 15.335938 -28.15625 16.976562 -27.773438 18.375 -27.015625 C 19.78125 -26.253906 20.875 -25.203125 21.65625 -23.859375 C 22.445312 -22.523438 22.84375 -20.992188 22.84375 -19.265625 C 22.84375 -17.984375 22.570312 -16.8125 22.03125 -15.75 C 21.5 -14.6875 20.765625 -13.769531 19.828125 -13 C 18.898438 -12.226562 17.8125 -11.628906 16.5625 -11.203125 C 15.320312 -10.785156 13.992188 -10.578125 12.578125 -10.578125 L 6.140625 -10.578125 L 6.140625 -15.453125 L 13.40625 -15.453125 C 14.21875 -15.453125 14.925781 -15.625 15.53125 -15.96875 C 16.132812 -16.3125 16.613281 -16.773438 16.96875 -17.359375 C 17.320312 -17.953125 17.5 -18.613281 17.5 -19.34375 C 17.5 -20.03125 17.347656 -20.664062 17.046875 -21.25 C 16.742188 -21.84375 16.289062 -22.320312 15.6875 -22.6875 C 15.082031 -23.0625 14.347656 -23.25 13.484375 -23.25 L 8.5 -23.25 L 8.5 0 Z M 9.40625 -12.78125 L 15.609375 -12.78125 L 24.34375 -0.3125 L 24.34375 0 L 18.25 0 Z M 9.40625 -12.78125 "/></g></g></g><g fill="#1e1e1e" fill-opacity="1"><g transform="translate(593.064558, 1004.300509)"><g><path d="M 3.1875 0 L 3.1875 -28.15625 L 21.046875 -28.15625 L 21.046875 -23.125 L 8.5 -23.125 L 8.5 -5.03125 L 21.046875 -5.03125 L 21.046875 0 Z M 6.140625 -11.5625 L 6.140625 -16.59375 L 19.78125 -16.59375 L 19.78125 -11.5625 Z M 6.140625 -11.5625 "/></g></g></g><g fill="#1e1e1e" fill-opacity="1"><g transform="translate(616.103938, 1004.300509)"><g><path d="M 0.59375 0 L 11.125 -28.15625 L 17.21875 -28.15625 L 27.8125 0 L 21.9375 0 L 15.375 -18.6875 L 14.359375 -22.0625 L 14.046875 -22.0625 L 13.015625 -18.6875 L 6.453125 0 Z M 13.890625 -6.71875 L 13.890625 -11.609375 L 20.453125 -11.609375 L 22.1875 -6.71875 Z M 6.21875 -6.71875 L 7.90625 -11.609375 L 13.890625 -11.609375 L 13.890625 -6.71875 Z M 6.21875 -6.71875 "/></g></g></g><g fill="#1e1e1e" fill-opacity="1"><g transform="translate(644.490342, 1004.300509)"><g><path d="M 3.1875 0 L 3.1875 -28.15625 L 8.5 -28.15625 L 8.5 -5.03125 L 20.40625 -5.03125 L 20.40625 0 Z M 3.1875 0 "/></g></g></g><g fill="#1e1e1e" fill-opacity="1"><g transform="translate(665.996386, 1004.300509)"><g/></g></g><g fill="#1e1e1e" fill-opacity="1"><g transform="translate(675.196416, 1004.300509)"><g><path d="M 8.734375 0 L 8.734375 -25.484375 L 14.046875 -25.484375 L 14.046875 0 Z M 0.859375 -23.125 L 0.859375 -28.15625 L 21.90625 -28.15625 L 21.90625 -23.125 Z M 0.859375 -23.125 "/></g></g></g><g fill="#1e1e1e" fill-opacity="1"><g transform="translate(697.96059, 1004.300509)"><g><path d="M 3.1875 0 L 3.1875 -28.15625 L 8.5 -28.15625 L 8.5 0 Z M 3.1875 0 "/></g></g></g><g fill="#1e1e1e" fill-opacity="1"><g transform="translate(709.637545, 1004.300509)"><g><path d="M 3.1875 0 L 3.1875 -28.15625 L 10.03125 -28.15625 L 17.5 -8.375 L 17.8125 -8.375 L 25.28125 -28.15625 L 32.171875 -28.15625 L 32.171875 0 L 26.90625 0 L 26.90625 -13.890625 L 27.21875 -18.5625 L 26.90625 -18.5625 L 19.75 0 L 15.609375 0 L 8.421875 -18.5625 L 8.109375 -18.5625 L 8.421875 -13.890625 L 8.421875 0 Z M 3.1875 0 "/></g></g></g><g fill="#1e1e1e" fill-opacity="1"><g transform="translate(744.982952, 1004.300509)"><g><path d="M 3.1875 0 L 3.1875 -28.15625 L 21.046875 -28.15625 L 21.046875 -23.125 L 8.5 -23.125 L 8.5 -5.03125 L 21.046875 -5.03125 L 21.046875 0 Z M 6.140625 -11.5625 L 6.140625 -16.59375 L 19.78125 -16.59375 L 19.78125 -11.5625 Z M 6.140625 -11.5625 "/></g></g></g><g fill="#1e1e1e" fill-opacity="1"><g transform="translate(768.022345, 1004.300509)"><g/></g></g><g fill="#1e1e1e" fill-opacity="1"><g transform="translate(777.222364, 1004.300509)"><g><path d="M 16.515625 0.625 C 14.441406 0.625 12.503906 0.253906 10.703125 -0.484375 C 8.910156 -1.234375 7.347656 -2.273438 6.015625 -3.609375 C 4.679688 -4.953125 3.640625 -6.515625 2.890625 -8.296875 C 2.140625 -10.078125 1.765625 -12.003906 1.765625 -14.078125 C 1.765625 -16.148438 2.140625 -18.078125 2.890625 -19.859375 C 3.640625 -21.640625 4.679688 -23.195312 6.015625 -24.53125 C 7.347656 -25.875 8.910156 -26.914062 10.703125 -27.65625 C 12.503906 -28.40625 14.441406 -28.78125 16.515625 -28.78125 C 18.015625 -28.78125 19.390625 -28.601562 20.640625 -28.25 C 21.898438 -27.894531 23.0625 -27.378906 24.125 -26.703125 C 25.1875 -26.023438 26.164062 -25.1875 27.0625 -24.1875 L 23.328125 -20.5625 C 22.773438 -21.21875 22.160156 -21.78125 21.484375 -22.25 C 20.816406 -22.726562 20.078125 -23.097656 19.265625 -23.359375 C 18.453125 -23.617188 17.550781 -23.75 16.5625 -23.75 C 14.800781 -23.75 13.207031 -23.347656 11.78125 -22.546875 C 10.351562 -21.753906 9.21875 -20.632812 8.375 -19.1875 C 7.539062 -17.75 7.125 -16.046875 7.125 -14.078125 C 7.125 -12.140625 7.539062 -10.441406 8.375 -8.984375 C 9.21875 -7.523438 10.351562 -6.394531 11.78125 -5.59375 C 13.207031 -4.800781 14.800781 -4.40625 16.5625 -4.40625 C 18.132812 -4.40625 19.53125 -4.734375 20.75 -5.390625 C 21.96875 -6.046875 23.046875 -6.953125 23.984375 -8.109375 L 27.765625 -4.515625 C 26.847656 -3.421875 25.8125 -2.484375 24.65625 -1.703125 C 23.5 -0.929688 22.238281 -0.351562 20.875 0.03125 C 19.519531 0.425781 18.066406 0.625 16.515625 0.625 Z M 16.515625 0.625 "/></g></g></g><g fill="#1e1e1e" fill-opacity="1"><g transform="translate(806.513034, 1004.300509)"><g><path d="M 3.1875 0 L 3.1875 -28.15625 L 8.5 -28.15625 L 8.5 -5.03125 L 20.40625 -5.03125 L 20.40625 0 Z M 3.1875 0 "/></g></g></g><g fill="#1e1e1e" fill-opacity="1"><g transform="translate(826.446191, 1004.300509)"><g><path d="M 16.484375 0.625 C 14.378906 0.625 12.425781 0.253906 10.625 -0.484375 C 8.832031 -1.234375 7.273438 -2.28125 5.953125 -3.625 C 4.628906 -4.976562 3.597656 -6.546875 2.859375 -8.328125 C 2.128906 -10.117188 1.765625 -12.035156 1.765625 -14.078125 C 1.765625 -16.117188 2.128906 -18.03125 2.859375 -19.8125 C 3.597656 -21.601562 4.628906 -23.171875 5.953125 -24.515625 C 7.273438 -25.867188 8.832031 -26.914062 10.625 -27.65625 C 12.425781 -28.40625 14.378906 -28.78125 16.484375 -28.78125 C 18.578125 -28.78125 20.515625 -28.40625 22.296875 -27.65625 C 24.078125 -26.914062 25.632812 -25.867188 26.96875 -24.515625 C 28.3125 -23.171875 29.347656 -21.601562 30.078125 -19.8125 C 30.816406 -18.03125 31.1875 -16.117188 31.1875 -14.078125 C 31.1875 -12.035156 30.816406 -10.117188 30.078125 -8.328125 C 29.347656 -6.546875 28.3125 -4.976562 26.96875 -3.625 C 25.632812 -2.28125 24.078125 -1.234375 22.296875 -0.484375 C 20.515625 0.253906 18.578125 0.625 16.484375 0.625 Z M 16.484375 -4.40625 C 18.234375 -4.40625 19.816406 -4.8125 21.234375 -5.625 C 22.648438 -6.4375 23.773438 -7.566406 24.609375 -9.015625 C 25.453125 -10.472656 25.875 -12.160156 25.875 -14.078125 C 25.875 -16.015625 25.453125 -17.703125 24.609375 -19.140625 C 23.773438 -20.585938 22.648438 -21.71875 21.234375 -22.53125 C 19.816406 -23.34375 18.234375 -23.75 16.484375 -23.75 C 14.753906 -23.75 13.179688 -23.34375 11.765625 -22.53125 C 10.347656 -21.71875 9.21875 -20.585938 8.375 -19.140625 C 7.539062 -17.703125 7.125 -16.015625 7.125 -14.078125 C 7.125 -12.160156 7.539062 -10.472656 8.375 -9.015625 C 9.21875 -7.566406 10.347656 -6.4375 11.765625 -5.625 C 13.179688 -4.8125 14.753906 -4.40625 16.484375 -4.40625 Z M 16.484375 -4.40625 "/></g></g></g><g fill="#1e1e1e" fill-opacity="1"><g transform="translate(859.393293, 1004.300509)"><g><path d="M 16.515625 0.625 C 14.441406 0.625 12.503906 0.253906 10.703125 -0.484375 C 8.910156 -1.234375 7.347656 -2.273438 6.015625 -3.609375 C 4.679688 -4.953125 3.640625 -6.515625 2.890625 -8.296875 C 2.140625 -10.078125 1.765625 -12.003906 1.765625 -14.078125 C 1.765625 -16.148438 2.140625 -18.078125 2.890625 -19.859375 C 3.640625 -21.640625 4.679688 -23.195312 6.015625 -24.53125 C 7.347656 -25.875 8.910156 -26.914062 10.703125 -27.65625 C 12.503906 -28.40625 14.441406 -28.78125 16.515625 -28.78125 C 18.015625 -28.78125 19.390625 -28.601562 20.640625 -28.25 C 21.898438 -27.894531 23.0625 -27.378906 24.125 -26.703125 C 25.1875 -26.023438 26.164062 -25.1875 27.0625 -24.1875 L 23.328125 -20.5625 C 22.773438 -21.21875 22.160156 -21.78125 21.484375 -22.25 C 20.816406 -22.726562 20.078125 -23.097656 19.265625 -23.359375 C 18.453125 -23.617188 17.550781 -23.75 16.5625 -23.75 C 14.800781 -23.75 13.207031 -23.347656 11.78125 -22.546875 C 10.351562 -21.753906 9.21875 -20.632812 8.375 -19.1875 C 7.539062 -17.75 7.125 -16.046875 7.125 -14.078125 C 7.125 -12.140625 7.539062 -10.441406 8.375 -8.984375 C 9.21875 -7.523438 10.351562 -6.394531 11.78125 -5.59375 C 13.207031 -4.800781 14.800781 -4.40625 16.5625 -4.40625 C 18.132812 -4.40625 19.53125 -4.734375 20.75 -5.390625 C 21.96875 -6.046875 23.046875 -6.953125 23.984375 -8.109375 L 27.765625 -4.515625 C 26.847656 -3.421875 25.8125 -2.484375 24.65625 -1.703125 C 23.5 -0.929688 22.238281 -0.351562 20.875 0.03125 C 19.519531 0.425781 18.066406 0.625 16.515625 0.625 Z M 16.515625 0.625 "/></g></g></g><g fill="#1e1e1e" fill-opacity="1"><g transform="translate(888.683986, 1004.300509)"><g><path d="M 3.1875 0 L 3.1875 -28.15625 L 8.5 -28.15625 L 8.5 0 Z M 20.09375 0 L 10.34375 -13.890625 L 14 -18.09375 L 26.578125 -0.3125 L 26.578125 0 Z M 5.9375 -5.1875 L 6.015625 -12.578125 L 19.109375 -28.15625 L 25.53125 -28.15625 L 25.53125 -27.84375 Z M 5.9375 -5.1875 "/></g></g></g><g fill="#1e1e1e" fill-opacity="1"><g transform="translate(915.025834, 1004.300509)"><g><path d="M 11.6875 0.625 C 10.082031 0.625 8.578125 0.320312 7.171875 -0.28125 C 5.773438 -0.882812 4.554688 -1.78125 3.515625 -2.96875 C 2.484375 -4.164062 1.707031 -5.628906 1.1875 -7.359375 L 6.171875 -9.328125 C 6.535156 -7.929688 7.175781 -6.757812 8.09375 -5.8125 C 9.019531 -4.875 10.226562 -4.40625 11.71875 -4.40625 C 12.457031 -4.40625 13.148438 -4.53125 13.796875 -4.78125 C 14.453125 -5.03125 14.984375 -5.398438 15.390625 -5.890625 C 15.796875 -6.390625 16 -7.007812 16 -7.75 C 16 -8.457031 15.828125 -9.066406 15.484375 -9.578125 C 15.148438 -10.085938 14.582031 -10.570312 13.78125 -11.03125 C 12.976562 -11.488281 11.898438 -11.96875 10.546875 -12.46875 L 8.8125 -13.09375 C 8.050781 -13.382812 7.28125 -13.742188 6.5 -14.171875 C 5.726562 -14.609375 5.019531 -15.144531 4.375 -15.78125 C 3.738281 -16.425781 3.222656 -17.164062 2.828125 -18 C 2.429688 -18.84375 2.234375 -19.804688 2.234375 -20.890625 C 2.234375 -22.347656 2.613281 -23.675781 3.375 -24.875 C 4.132812 -26.070312 5.195312 -27.019531 6.5625 -27.71875 C 7.925781 -28.425781 9.515625 -28.78125 11.328125 -28.78125 C 13.210938 -28.78125 14.769531 -28.457031 16 -27.8125 C 17.238281 -27.175781 18.203125 -26.398438 18.890625 -25.484375 C 19.585938 -24.566406 20.082031 -23.675781 20.375 -22.8125 L 15.6875 -20.84375 C 15.53125 -21.363281 15.269531 -21.859375 14.90625 -22.328125 C 14.539062 -22.804688 14.066406 -23.1875 13.484375 -23.46875 C 12.910156 -23.757812 12.21875 -23.90625 11.40625 -23.90625 C 10.644531 -23.90625 9.960938 -23.78125 9.359375 -23.53125 C 8.753906 -23.289062 8.28125 -22.953125 7.9375 -22.515625 C 7.601562 -22.078125 7.4375 -21.570312 7.4375 -21 C 7.4375 -20.164062 7.796875 -19.445312 8.515625 -18.84375 C 9.234375 -18.238281 10.394531 -17.671875 12 -17.140625 L 13.765625 -16.5625 C 14.765625 -16.21875 15.710938 -15.816406 16.609375 -15.359375 C 17.515625 -14.898438 18.320312 -14.328125 19.03125 -13.640625 C 19.738281 -12.960938 20.296875 -12.148438 20.703125 -11.203125 C 21.109375 -10.265625 21.3125 -9.140625 21.3125 -7.828125 C 21.3125 -6.378906 21.019531 -5.117188 20.4375 -4.046875 C 19.863281 -2.972656 19.101562 -2.09375 18.15625 -1.40625 C 17.21875 -0.726562 16.175781 -0.222656 15.03125 0.109375 C 13.894531 0.453125 12.78125 0.625 11.6875 0.625 Z M 11.6875 0.625 "/></g></g></g><g fill="#1e1e1e" fill-opacity="1"><g transform="translate(473.640637, 1047.050506)"><g><path d="M 3.1875 0 L 3.1875 -28.15625 L 21.046875 -28.15625 L 21.046875 -23.125 L 8.5 -23.125 L 8.5 0 Z M 6.140625 -11.25 L 6.140625 -16.28125 L 19.78125 -16.28125 L 19.78125 -11.25 Z M 6.140625 -11.25 "/></g></g></g><g fill="#1e1e1e" fill-opacity="1"><g transform="translate(495.30382, 1047.050506)"><g><path d="M 16.484375 0.625 C 14.378906 0.625 12.425781 0.253906 10.625 -0.484375 C 8.832031 -1.234375 7.273438 -2.28125 5.953125 -3.625 C 4.628906 -4.976562 3.597656 -6.546875 2.859375 -8.328125 C 2.128906 -10.117188 1.765625 -12.035156 1.765625 -14.078125 C 1.765625 -16.117188 2.128906 -18.03125 2.859375 -19.8125 C 3.597656 -21.601562 4.628906 -23.171875 5.953125 -24.515625 C 7.273438 -25.867188 8.832031 -26.914062 10.625 -27.65625 C 12.425781 -28.40625 14.378906 -28.78125 16.484375 -28.78125 C 18.578125 -28.78125 20.515625 -28.40625 22.296875 -27.65625 C 24.078125 -26.914062 25.632812 -25.867188 26.96875 -24.515625 C 28.3125 -23.171875 29.347656 -21.601562 30.078125 -19.8125 C 30.816406 -18.03125 31.1875 -16.117188 31.1875 -14.078125 C 31.1875 -12.035156 30.816406 -10.117188 30.078125 -8.328125 C 29.347656 -6.546875 28.3125 -4.976562 26.96875 -3.625 C 25.632812 -2.28125 24.078125 -1.234375 22.296875 -0.484375 C 20.515625 0.253906 18.578125 0.625 16.484375 0.625 Z M 16.484375 -4.40625 C 18.234375 -4.40625 19.816406 -4.8125 21.234375 -5.625 C 22.648438 -6.4375 23.773438 -7.566406 24.609375 -9.015625 C 25.453125 -10.472656 25.875 -12.160156 25.875 -14.078125 C 25.875 -16.015625 25.453125 -17.703125 24.609375 -19.140625 C 23.773438 -20.585938 22.648438 -21.71875 21.234375 -22.53125 C 19.816406 -23.34375 18.234375 -23.75 16.484375 -23.75 C 14.753906 -23.75 13.179688 -23.34375 11.765625 -22.53125 C 10.347656 -21.71875 9.21875 -20.585938 8.375 -19.140625 C 7.539062 -17.703125 7.125 -16.015625 7.125 -14.078125 C 7.125 -12.160156 7.539062 -10.472656 8.375 -9.015625 C 9.21875 -7.566406 10.347656 -6.4375 11.765625 -5.625 C 13.179688 -4.8125 14.753906 -4.40625 16.484375 -4.40625 Z M 16.484375 -4.40625 "/></g></g></g><g fill="#1e1e1e" fill-opacity="1"><g transform="translate(528.250923, 1047.050506)"><g><path d="M 3.1875 0 L 3.1875 -28.15625 L 13.453125 -28.15625 C 15.335938 -28.15625 16.976562 -27.773438 18.375 -27.015625 C 19.78125 -26.253906 20.875 -25.203125 21.65625 -23.859375 C 22.445312 -22.523438 22.84375 -20.992188 22.84375 -19.265625 C 22.84375 -17.984375 22.570312 -16.8125 22.03125 -15.75 C 21.5 -14.6875 20.765625 -13.769531 19.828125 -13 C 18.898438 -12.226562 17.8125 -11.628906 16.5625 -11.203125 C 15.320312 -10.785156 13.992188 -10.578125 12.578125 -10.578125 L 6.140625 -10.578125 L 6.140625 -15.453125 L 13.40625 -15.453125 C 14.21875 -15.453125 14.925781 -15.625 15.53125 -15.96875 C 16.132812 -16.3125 16.613281 -16.773438 16.96875 -17.359375 C 17.320312 -17.953125 17.5 -18.613281 17.5 -19.34375 C 17.5 -20.03125 17.347656 -20.664062 17.046875 -21.25 C 16.742188 -21.84375 16.289062 -22.320312 15.6875 -22.6875 C 15.082031 -23.0625 14.347656 -23.25 13.484375 -23.25 L 8.5 -23.25 L 8.5 0 Z M 9.40625 -12.78125 L 15.609375 -12.78125 L 24.34375 -0.3125 L 24.34375 0 L 18.25 0 Z M 9.40625 -12.78125 "/></g></g></g><g fill="#1e1e1e" fill-opacity="1"><g transform="translate(553.374067, 1047.050506)"><g/></g></g><g fill="#1e1e1e" fill-opacity="1"><g transform="translate(562.574097, 1047.050506)"><g><path d="M 3.1875 0 L 3.1875 -28.15625 L 12.703125 -28.15625 C 15.691406 -28.15625 18.265625 -27.554688 20.421875 -26.359375 C 22.585938 -25.171875 24.253906 -23.519531 25.421875 -21.40625 C 26.585938 -19.300781 27.171875 -16.859375 27.171875 -14.078125 C 27.171875 -11.296875 26.585938 -8.84375 25.421875 -6.71875 C 24.253906 -4.601562 22.585938 -2.953125 20.421875 -1.765625 C 18.265625 -0.585938 15.691406 0 12.703125 0 Z M 8.5 -5.03125 L 12.46875 -5.03125 C 14.539062 -5.03125 16.269531 -5.40625 17.65625 -6.15625 C 19.050781 -6.90625 20.09375 -7.957031 20.78125 -9.3125 C 21.476562 -10.675781 21.828125 -12.265625 21.828125 -14.078125 C 21.828125 -15.910156 21.476562 -17.503906 20.78125 -18.859375 C 20.09375 -20.210938 19.050781 -21.257812 17.65625 -22 C 16.269531 -22.75 14.539062 -23.125 12.46875 -23.125 L 8.5 -23.125 Z M 8.5 -5.03125 "/></g></g></g><g fill="#1e1e1e" fill-opacity="1"><g transform="translate(591.510938, 1047.050506)"><g><path d="M 3.1875 0 L 3.1875 -28.15625 L 8.5 -28.15625 L 8.5 0 Z M 3.1875 0 "/></g></g></g><g fill="#1e1e1e" fill-opacity="1"><g transform="translate(603.187894, 1047.050506)"><g><path d="M 3.1875 0 L 3.1875 -28.15625 L 21.046875 -28.15625 L 21.046875 -23.125 L 8.5 -23.125 L 8.5 0 Z M 6.140625 -11.25 L 6.140625 -16.28125 L 19.78125 -16.28125 L 19.78125 -11.25 Z M 6.140625 -11.25 "/></g></g></g><g fill="#1e1e1e" fill-opacity="1"><g transform="translate(625.637526, 1047.050506)"><g><path d="M 3.1875 0 L 3.1875 -28.15625 L 21.046875 -28.15625 L 21.046875 -23.125 L 8.5 -23.125 L 8.5 0 Z M 6.140625 -11.25 L 6.140625 -16.28125 L 19.78125 -16.28125 L 19.78125 -11.25 Z M 6.140625 -11.25 "/></g></g></g><g fill="#1e1e1e" fill-opacity="1"><g transform="translate(648.087159, 1047.050506)"><g><path d="M 3.1875 0 L 3.1875 -28.15625 L 13.453125 -28.15625 C 15.335938 -28.15625 16.976562 -27.773438 18.375 -27.015625 C 19.78125 -26.253906 20.875 -25.203125 21.65625 -23.859375 C 22.445312 -22.523438 22.84375 -20.992188 22.84375 -19.265625 C 22.84375 -17.984375 22.570312 -16.8125 22.03125 -15.75 C 21.5 -14.6875 20.765625 -13.769531 19.828125 -13 C 18.898438 -12.226562 17.8125 -11.628906 16.5625 -11.203125 C 15.320312 -10.785156 13.992188 -10.578125 12.578125 -10.578125 L 6.140625 -10.578125 L 6.140625 -15.453125 L 13.40625 -15.453125 C 14.21875 -15.453125 14.925781 -15.625 15.53125 -15.96875 C 16.132812 -16.3125 16.613281 -16.773438 16.96875 -17.359375 C 17.320312 -17.953125 17.5 -18.613281 17.5 -19.34375 C 17.5 -20.03125 17.347656 -20.664062 17.046875 -21.25 C 16.742188 -21.84375 16.289062 -22.320312 15.6875 -22.6875 C 15.082031 -23.0625 14.347656 -23.25 13.484375 -23.25 L 8.5 -23.25 L 8.5 0 Z M 9.40625 -12.78125 L 15.609375 -12.78125 L 24.34375 -0.3125 L 24.34375 0 L 18.25 0 Z M 9.40625 -12.78125 "/></g></g></g><g fill="#1e1e1e" fill-opacity="1"><g transform="translate(673.210291, 1047.050506)"><g><path d="M 3.1875 0 L 3.1875 -28.15625 L 21.046875 -28.15625 L 21.046875 -23.125 L 8.5 -23.125 L 8.5 -5.03125 L 21.046875 -5.03125 L 21.046875 0 Z M 6.140625 -11.5625 L 6.140625 -16.59375 L 19.78125 -16.59375 L 19.78125 -11.5625 Z M 6.140625 -11.5625 "/></g></g></g><g fill="#1e1e1e" fill-opacity="1"><g transform="translate(696.249672, 1047.050506)"><g><path d="M 3.1875 0 L 3.1875 -28.15625 L 9.359375 -28.15625 L 20.6875 -9.28125 L 21 -9.28125 L 20.6875 -14.703125 L 20.6875 -28.15625 L 25.953125 -28.15625 L 25.953125 0 L 20.375 0 L 8.421875 -19.9375 L 8.109375 -19.9375 L 8.421875 -14.515625 L 8.421875 0 Z M 3.1875 0 "/></g></g></g><g fill="#1e1e1e" fill-opacity="1"><g transform="translate(725.3831, 1047.050506)"><g><path d="M 8.734375 0 L 8.734375 -25.484375 L 14.046875 -25.484375 L 14.046875 0 Z M 0.859375 -23.125 L 0.859375 -28.15625 L 21.90625 -28.15625 L 21.90625 -23.125 Z M 0.859375 -23.125 "/></g></g></g><g fill="#1e1e1e" fill-opacity="1"><g transform="translate(748.147274, 1047.050506)"><g/></g></g><g fill="#1e1e1e" fill-opacity="1"><g transform="translate(757.347293, 1047.050506)"><g><path d="M 8.734375 0 L 8.734375 -25.484375 L 14.046875 -25.484375 L 14.046875 0 Z M 0.859375 -23.125 L 0.859375 -28.15625 L 21.90625 -28.15625 L 21.90625 -23.125 Z M 0.859375 -23.125 "/></g></g></g><g fill="#1e1e1e" fill-opacity="1"><g transform="translate(780.111466, 1047.050506)"><g><path d="M 3.1875 0 L 3.1875 -28.15625 L 8.5 -28.15625 L 8.5 0 Z M 3.1875 0 "/></g></g></g><g fill="#1e1e1e" fill-opacity="1"><g transform="translate(791.788421, 1047.050506)"><g><path d="M 3.1875 0 L 3.1875 -28.15625 L 10.03125 -28.15625 L 17.5 -8.375 L 17.8125 -8.375 L 25.28125 -28.15625 L 32.171875 -28.15625 L 32.171875 0 L 26.90625 0 L 26.90625 -13.890625 L 27.21875 -18.5625 L 26.90625 -18.5625 L 19.75 0 L 15.609375 0 L 8.421875 -18.5625 L 8.109375 -18.5625 L 8.421875 -13.890625 L 8.421875 0 Z M 3.1875 0 "/></g></g></g><g fill="#1e1e1e" fill-opacity="1"><g transform="translate(827.133839, 1047.050506)"><g><path d="M 3.1875 0 L 3.1875 -28.15625 L 21.046875 -28.15625 L 21.046875 -23.125 L 8.5 -23.125 L 8.5 -5.03125 L 21.046875 -5.03125 L 21.046875 0 Z M 6.140625 -11.5625 L 6.140625 -16.59375 L 19.78125 -16.59375 L 19.78125 -11.5625 Z M 6.140625 -11.5625 "/></g></g></g><g fill="#1e1e1e" fill-opacity="1"><g transform="translate(850.17322, 1047.050506)"><g/></g></g><g fill="#1e1e1e" fill-opacity="1"><g transform="translate(859.373239, 1047.050506)"><g><path d="M 1.578125 0 L 1.578125 -5.34375 L 15.84375 -23.125 L 2.203125 -23.125 L 2.203125 -28.15625 L 22.03125 -28.15625 L 22.03125 -22.8125 L 7.90625 -5.03125 L 22.1875 -5.03125 L 22.1875 0 Z M 1.578125 0 "/></g></g></g><g fill="#1e1e1e" fill-opacity="1"><g transform="translate(882.097908, 1047.050506)"><g><path d="M 16.484375 0.625 C 14.378906 0.625 12.425781 0.253906 10.625 -0.484375 C 8.832031 -1.234375 7.273438 -2.28125 5.953125 -3.625 C 4.628906 -4.976562 3.597656 -6.546875 2.859375 -8.328125 C 2.128906 -10.117188 1.765625 -12.035156 1.765625 -14.078125 C 1.765625 -16.117188 2.128906 -18.03125 2.859375 -19.8125 C 3.597656 -21.601562 4.628906 -23.171875 5.953125 -24.515625 C 7.273438 -25.867188 8.832031 -26.914062 10.625 -27.65625 C 12.425781 -28.40625 14.378906 -28.78125 16.484375 -28.78125 C 18.578125 -28.78125 20.515625 -28.40625 22.296875 -27.65625 C 24.078125 -26.914062 25.632812 -25.867188 26.96875 -24.515625 C 28.3125 -23.171875 29.347656 -21.601562 30.078125 -19.8125 C 30.816406 -18.03125 31.1875 -16.117188 31.1875 -14.078125 C 31.1875 -12.035156 30.816406 -10.117188 30.078125 -8.328125 C 29.347656 -6.546875 28.3125 -4.976562 26.96875 -3.625 C 25.632812 -2.28125 24.078125 -1.234375 22.296875 -0.484375 C 20.515625 0.253906 18.578125 0.625 16.484375 0.625 Z M 16.484375 -4.40625 C 18.234375 -4.40625 19.816406 -4.8125 21.234375 -5.625 C 22.648438 -6.4375 23.773438 -7.566406 24.609375 -9.015625 C 25.453125 -10.472656 25.875 -12.160156 25.875 -14.078125 C 25.875 -16.015625 25.453125 -17.703125 24.609375 -19.140625 C 23.773438 -20.585938 22.648438 -21.71875 21.234375 -22.53125 C 19.816406 -23.34375 18.234375 -23.75 16.484375 -23.75 C 14.753906 -23.75 13.179688 -23.34375 11.765625 -22.53125 C 10.347656 -21.71875 9.21875 -20.585938 8.375 -19.140625 C 7.539062 -17.703125 7.125 -16.015625 7.125 -14.078125 C 7.125 -12.160156 7.539062 -10.472656 8.375 -9.015625 C 9.21875 -7.566406 10.347656 -6.4375 11.765625 -5.625 C 13.179688 -4.8125 14.753906 -4.40625 16.484375 -4.40625 Z M 16.484375 -4.40625 "/></g></g></g><g fill="#1e1e1e" fill-opacity="1"><g transform="translate(915.045033, 1047.050506)"><g><path d="M 3.1875 0 L 3.1875 -28.15625 L 9.359375 -28.15625 L 20.6875 -9.28125 L 21 -9.28125 L 20.6875 -14.703125 L 20.6875 -28.15625 L 25.953125 -28.15625 L 25.953125 0 L 20.375 0 L 8.421875 -19.9375 L 8.109375 -19.9375 L 8.421875 -14.515625 L 8.421875 0 Z M 3.1875 0 "/></g></g></g><g fill="#1e1e1e" fill-opacity="1"><g transform="translate(944.178438, 1047.050506)"><g><path d="M 3.1875 0 L 3.1875 -28.15625 L 21.046875 -28.15625 L 21.046875 -23.125 L 8.5 -23.125 L 8.5 -5.03125 L 21.046875 -5.03125 L 21.046875 0 Z M 6.140625 -11.5625 L 6.140625 -16.59375 L 19.78125 -16.59375 L 19.78125 -11.5625 Z M 6.140625 -11.5625 "/></g></g></g><g fill="#1e1e1e" fill-opacity="1"><g transform="translate(966.62799, 1047.050506)"><g><path d="M 11.6875 0.625 C 10.082031 0.625 8.578125 0.320312 7.171875 -0.28125 C 5.773438 -0.882812 4.554688 -1.78125 3.515625 -2.96875 C 2.484375 -4.164062 1.707031 -5.628906 1.1875 -7.359375 L 6.171875 -9.328125 C 6.535156 -7.929688 7.175781 -6.757812 8.09375 -5.8125 C 9.019531 -4.875 10.226562 -4.40625 11.71875 -4.40625 C 12.457031 -4.40625 13.148438 -4.53125 13.796875 -4.78125 C 14.453125 -5.03125 14.984375 -5.398438 15.390625 -5.890625 C 15.796875 -6.390625 16 -7.007812 16 -7.75 C 16 -8.457031 15.828125 -9.066406 15.484375 -9.578125 C 15.148438 -10.085938 14.582031 -10.570312 13.78125 -11.03125 C 12.976562 -11.488281 11.898438 -11.96875 10.546875 -12.46875 L 8.8125 -13.09375 C 8.050781 -13.382812 7.28125 -13.742188 6.5 -14.171875 C 5.726562 -14.609375 5.019531 -15.144531 4.375 -15.78125 C 3.738281 -16.425781 3.222656 -17.164062 2.828125 -18 C 2.429688 -18.84375 2.234375 -19.804688 2.234375 -20.890625 C 2.234375 -22.347656 2.613281 -23.675781 3.375 -24.875 C 4.132812 -26.070312 5.195312 -27.019531 6.5625 -27.71875 C 7.925781 -28.425781 9.515625 -28.78125 11.328125 -28.78125 C 13.210938 -28.78125 14.769531 -28.457031 16 -27.8125 C 17.238281 -27.175781 18.203125 -26.398438 18.890625 -25.484375 C 19.585938 -24.566406 20.082031 -23.675781 20.375 -22.8125 L 15.6875 -20.84375 C 15.53125 -21.363281 15.269531 -21.859375 14.90625 -22.328125 C 14.539062 -22.804688 14.066406 -23.1875 13.484375 -23.46875 C 12.910156 -23.757812 12.21875 -23.90625 11.40625 -23.90625 C 10.644531 -23.90625 9.960938 -23.78125 9.359375 -23.53125 C 8.753906 -23.289062 8.28125 -22.953125 7.9375 -22.515625 C 7.601562 -22.078125 7.4375 -21.570312 7.4375 -21 C 7.4375 -20.164062 7.796875 -19.445312 8.515625 -18.84375 C 9.234375 -18.238281 10.394531 -17.671875 12 -17.140625 L 13.765625 -16.5625 C 14.765625 -16.21875 15.710938 -15.816406 16.609375 -15.359375 C 17.515625 -14.898438 18.320312 -14.328125 19.03125 -13.640625 C 19.738281 -12.960938 20.296875 -12.148438 20.703125 -11.203125 C 21.109375 -10.265625 21.3125 -9.140625 21.3125 -7.828125 C 21.3125 -6.378906 21.019531 -5.117188 20.4375 -4.046875 C 19.863281 -2.972656 19.101562 -2.09375 18.15625 -1.40625 C 17.21875 -0.726562 16.175781 -0.222656 15.03125 0.109375 C 13.894531 0.453125 12.78125 0.625 11.6875 0.625 Z M 11.6875 0.625 "/></g></g></g><g fill="#1e1e1e" fill-opacity="1"><g transform="translate(989.510083, 1047.050506)"><g/></g></g><g fill="#1e1e1e" fill-opacity="1"><g transform="translate(998.710125, 1047.050506)"><g><path d="M 5.578125 0.234375 C 4.640625 0.234375 3.832031 -0.0976562 3.15625 -0.765625 C 2.488281 -1.429688 2.15625 -2.238281 2.15625 -3.1875 C 2.15625 -4.125 2.488281 -4.921875 3.15625 -5.578125 C 3.832031 -6.234375 4.640625 -6.5625 5.578125 -6.5625 C 6.523438 -6.5625 7.332031 -6.234375 8 -5.578125 C 8.664062 -4.921875 9 -4.125 9 -3.1875 C 9 -2.238281 8.664062 -1.429688 8 -0.765625 C 7.332031 -0.0976562 6.523438 0.234375 5.578125 0.234375 Z M 5.578125 0.234375 "/></g></g></g><g fill="#1e1e1e" fill-opacity="1"><g transform="translate(1009.875941, 1047.050506)"><g><path d="M 5.578125 0.234375 C 4.640625 0.234375 3.832031 -0.0976562 3.15625 -0.765625 C 2.488281 -1.429688 2.15625 -2.238281 2.15625 -3.1875 C 2.15625 -4.125 2.488281 -4.921875 3.15625 -5.578125 C 3.832031 -6.234375 4.640625 -6.5625 5.578125 -6.5625 C 6.523438 -6.5625 7.332031 -6.234375 8 -5.578125 C 8.664062 -4.921875 9 -4.125 9 -3.1875 C 9 -2.238281 8.664062 -1.429688 8 -0.765625 C 7.332031 -0.0976562 6.523438 0.234375 5.578125 0.234375 Z M 5.578125 0.234375 "/></g></g></g><g fill="#1e1e1e" fill-opacity="1"><g transform="translate(1021.041803, 1047.050506)"><g><path d="M 5.578125 0.234375 C 4.640625 0.234375 3.832031 -0.0976562 3.15625 -0.765625 C 2.488281 -1.429688 2.15625 -2.238281 2.15625 -3.1875 C 2.15625 -4.125 2.488281 -4.921875 3.15625 -5.578125 C 3.832031 -6.234375 4.640625 -6.5625 5.578125 -6.5625 C 6.523438 -6.5625 7.332031 -6.234375 8 -5.578125 C 8.664062 -4.921875 9 -4.125 9 -3.1875 C 9 -2.238281 8.664062 -1.429688 8 -0.765625 C 7.332031 -0.0976562 6.523438 0.234375 5.578125 0.234375 Z M 5.578125 0.234375 "/></g></g></g><g transform="matrix(1, 0, 0, 1, 970, 578)"><g clip-path="url(#9e48c9d075)"><g fill="#1e1e1e" fill-opacity="1"><g transform="translate(1.179168, 285.47971)"><g><path d="M 113.40625 4.359375 C 93.4375 4.359375 75.941406 0.0507812 60.921875 -8.5625 C 45.898438 -17.1875 34.378906 -28.878906 26.359375 -43.640625 C 18.335938 -58.398438 14.328125 -74.828125 14.328125 -92.921875 C 14.328125 -110.835938 18.59375 -127.046875 27.125 -141.546875 C 35.664062 -156.054688 47.488281 -167.492188 62.59375 -175.859375 C 77.695312 -184.222656 94.632812 -188.40625 113.40625 -188.40625 C 130.125 -188.40625 145.304688 -185.117188 158.953125 -178.546875 C 172.609375 -171.972656 183.875 -162.375 192.75 -149.75 L 178.171875 -138.75 C 170.316406 -149.15625 160.882812 -157.046875 149.875 -162.421875 C 138.875 -167.796875 126.800781 -170.484375 113.65625 -170.484375 C 99.144531 -170.484375 85.789062 -167.113281 73.59375 -160.375 C 61.394531 -153.632812 51.664062 -144.25 44.40625 -132.21875 C 37.15625 -120.1875 33.53125 -106.578125 33.53125 -91.390625 C 33.53125 -76.367188 37.070312 -62.882812 44.15625 -50.9375 C 51.238281 -38.988281 60.960938 -29.601562 73.328125 -22.78125 C 85.703125 -15.957031 99.488281 -12.546875 114.6875 -12.546875 C 127.476562 -12.546875 139.289062 -15.101562 150.125 -20.21875 C 160.96875 -25.34375 170.65625 -32.9375 179.1875 -43 L 193.78125 -32 C 184.394531 -20.050781 172.832031 -11.003906 159.09375 -4.859375 C 145.351562 1.285156 130.125 4.359375 113.40625 4.359375 Z M 113.40625 4.359375 "/></g></g></g><g fill="#1e1e1e" fill-opacity="1"><g transform="translate(209.550381, 285.47971)"><g><path d="M 145.90625 0 L 123.125 0 L 40.703125 -91.125 L 40.703125 0 L 22.265625 0 L 22.265625 -183.796875 L 40.703125 -183.796875 L 40.703125 -107.515625 L 114.9375 -183.796875 L 137.46875 -183.796875 L 56.0625 -99.0625 Z M 145.90625 0 "/></g></g></g></g></g></svg>