<svg xmlns="http://www.w3.org/2000/svg" xmlns:xlink="http://www.w3.org/1999/xlink" width="2000" zoomAndPan="magnify" viewBox="0 0 1500 1499.999933" height="2000" preserveAspectRatio="xMidYMid meet" version="1.0"><defs><g/><clipPath id="60263802f5"><path d="M 533.195312 531.082031 L 929.195312 531.082031 L 929.195312 927 L 533.195312 927 Z M 533.195312 531.082031 " clip-rule="nonzero"/></clipPath><clipPath id="fced34d719"><rect x="0" width="337" y="0" height="374"/></clipPath><clipPath id="ea86b10f1c"><rect x="0" width="372" y="0" height="378"/></clipPath></defs><g clip-path="url(#60263802f5)"><path fill="#fffefa" d="M 731.125 926.933594 C 704.40625 926.933594 678.484375 921.699219 654.078125 911.375 C 630.511719 901.40625 609.34375 887.136719 591.167969 868.964844 C 572.992188 850.789062 558.722656 829.621094 548.753906 806.054688 C 538.429688 781.644531 533.195312 755.726562 533.195312 729.011719 C 533.195312 702.296875 538.429688 676.371094 548.753906 651.964844 C 558.722656 628.398438 572.992188 607.230469 591.167969 589.054688 C 609.34375 570.878906 630.511719 556.609375 654.078125 546.640625 C 678.484375 536.316406 704.40625 531.082031 731.125 531.082031 C 757.839844 531.082031 783.761719 536.316406 808.167969 546.640625 C 831.738281 556.609375 852.902344 570.878906 871.078125 589.054688 C 889.253906 607.230469 903.523438 628.398438 913.492188 651.964844 C 923.816406 676.371094 929.050781 702.292969 929.050781 729.011719 C 929.050781 755.726562 923.816406 781.648438 913.492188 806.054688 C 903.523438 829.625 889.253906 850.789062 871.078125 868.964844 C 852.902344 887.140625 831.738281 901.410156 808.167969 911.378906 C 783.761719 921.703125 757.839844 926.9375 731.125 926.9375 Z M 731.125 547.023438 C 630.773438 547.023438 549.136719 628.660156 549.136719 729.011719 C 549.136719 829.359375 630.773438 910.996094 731.121094 910.996094 C 831.464844 910.996094 913.105469 829.355469 913.105469 729.011719 C 913.105469 628.664062 831.46875 547.023438 731.125 547.023438 Z M 731.125 547.023438 " fill-opacity="1" fill-rule="nonzero"/></g><path fill="#fffefa" d="M 750.726562 729.011719 C 750.726562 729.652344 750.695312 730.292969 750.632812 730.933594 C 750.570312 731.570312 750.476562 732.207031 750.347656 732.835938 C 750.222656 733.464844 750.070312 734.085938 749.882812 734.699219 C 749.695312 735.316406 749.480469 735.917969 749.234375 736.511719 C 748.988281 737.105469 748.714844 737.683594 748.410156 738.25 C 748.109375 738.816406 747.78125 739.367188 747.421875 739.902344 C 747.066406 740.433594 746.683594 740.949219 746.277344 741.445312 C 745.871094 741.941406 745.4375 742.417969 744.984375 742.871094 C 744.53125 743.324219 744.054688 743.757812 743.558594 744.164062 C 743.0625 744.570312 742.546875 744.953125 742.015625 745.308594 C 741.480469 745.667969 740.929688 745.996094 740.363281 746.296875 C 739.796875 746.601562 739.21875 746.875 738.625 747.121094 C 738.03125 747.367188 737.429688 747.582031 736.8125 747.769531 C 736.199219 747.957031 735.578125 748.109375 734.949219 748.238281 C 734.320312 748.363281 733.683594 748.457031 733.046875 748.519531 C 732.40625 748.582031 731.765625 748.613281 731.125 748.613281 C 730.480469 748.613281 729.839844 748.582031 729.203125 748.519531 C 728.5625 748.457031 727.929688 748.363281 727.300781 748.234375 C 726.671875 748.109375 726.046875 747.957031 725.433594 747.769531 C 724.820312 747.582031 724.214844 747.367188 723.621094 747.121094 C 723.03125 746.875 722.449219 746.601562 721.882812 746.296875 C 721.316406 745.996094 720.765625 745.667969 720.234375 745.308594 C 719.699219 744.953125 719.183594 744.570312 718.6875 744.164062 C 718.191406 743.757812 717.71875 743.324219 717.261719 742.871094 C 716.808594 742.417969 716.378906 741.941406 715.972656 741.445312 C 715.5625 740.949219 715.183594 740.433594 714.824219 739.902344 C 714.46875 739.367188 714.140625 738.816406 713.835938 738.25 C 713.535156 737.683594 713.257812 737.105469 713.015625 736.511719 C 712.769531 735.917969 712.550781 735.316406 712.367188 734.699219 C 712.179688 734.085938 712.023438 733.464844 711.898438 732.835938 C 711.773438 732.207031 711.679688 731.570312 711.617188 730.933594 C 711.554688 730.292969 711.523438 729.652344 711.523438 729.011719 C 711.523438 728.367188 711.554688 727.726562 711.617188 727.089844 C 711.679688 726.449219 711.773438 725.816406 711.898438 725.1875 C 712.023438 724.558594 712.179688 723.933594 712.367188 723.320312 C 712.550781 722.707031 712.769531 722.101562 713.015625 721.507812 C 713.257812 720.917969 713.535156 720.335938 713.835938 719.769531 C 714.140625 719.203125 714.46875 718.652344 714.824219 718.121094 C 715.183594 717.585938 715.5625 717.070312 715.972656 716.574219 C 716.378906 716.078125 716.808594 715.605469 717.261719 715.148438 C 717.71875 714.695312 718.191406 714.265625 718.6875 713.859375 C 719.183594 713.449219 719.699219 713.070312 720.234375 712.710938 C 720.765625 712.355469 721.316406 712.027344 721.882812 711.722656 C 722.449219 711.421875 723.03125 711.144531 723.621094 710.902344 C 724.214844 710.65625 724.820312 710.4375 725.433594 710.253906 C 726.046875 710.066406 726.671875 709.910156 727.300781 709.785156 C 727.929688 709.660156 728.5625 709.566406 729.203125 709.503906 C 729.839844 709.441406 730.480469 709.410156 731.125 709.410156 C 731.765625 709.410156 732.40625 709.441406 733.046875 709.503906 C 733.683594 709.566406 734.320312 709.660156 734.949219 709.785156 C 735.578125 709.910156 736.199219 710.066406 736.8125 710.253906 C 737.429688 710.4375 738.03125 710.65625 738.625 710.902344 C 739.21875 711.144531 739.796875 711.421875 740.363281 711.722656 C 740.929688 712.027344 741.480469 712.355469 742.015625 712.710938 C 742.546875 713.070312 743.0625 713.449219 743.558594 713.859375 C 744.054688 714.265625 744.53125 714.695312 744.984375 715.148438 C 745.4375 715.605469 745.871094 716.078125 746.277344 716.574219 C 746.683594 717.070312 747.066406 717.585938 747.421875 718.121094 C 747.78125 718.652344 748.109375 719.203125 748.410156 719.769531 C 748.714844 720.335938 748.988281 720.917969 749.234375 721.507812 C 749.480469 722.101562 749.695312 722.707031 749.882812 723.320312 C 750.070312 723.933594 750.222656 724.558594 750.347656 725.1875 C 750.476562 725.816406 750.570312 726.449219 750.632812 727.089844 C 750.695312 727.726562 750.726562 728.367188 750.726562 729.011719 Z M 750.726562 729.011719 " fill-opacity="1" fill-rule="nonzero"/><path fill="#fffefa" d="M 731.125 839.457031 C 726.722656 839.457031 723.152344 835.886719 723.152344 831.484375 L 723.152344 728.820312 C 723.152344 724.417969 726.722656 720.847656 731.125 720.847656 C 735.527344 720.847656 739.09375 724.417969 739.09375 728.820312 L 739.09375 831.484375 C 739.09375 835.886719 735.527344 839.457031 731.125 839.457031 Z M 731.125 839.457031 " fill-opacity="1" fill-rule="nonzero"/><path fill="#fffefa" d="M 731.125 734.511719 C 727.980469 734.511719 725.433594 731.960938 725.433594 728.820312 L 725.433594 610.867188 C 725.433594 607.71875 727.980469 605.171875 731.125 605.171875 C 734.265625 605.171875 736.816406 607.722656 736.816406 610.867188 L 736.816406 728.820312 C 736.816406 731.964844 734.265625 734.511719 731.125 734.511719 Z M 731.125 734.511719 " fill-opacity="1" fill-rule="nonzero"/><g transform="matrix(1, 0, 0, 1, 158, 553)"><g clip-path="url(#fced34d719)"><g fill="#fffefa" fill-opacity="1"><g transform="translate(2.784306, 291.152815)"><g><path d="M 115.421875 4.421875 C 95.097656 4.421875 77.289062 0.0351562 62 -8.734375 C 46.71875 -17.503906 34.992188 -29.398438 26.828125 -44.421875 C 18.671875 -59.441406 14.59375 -76.160156 14.59375 -94.578125 C 14.59375 -112.804688 18.929688 -129.300781 27.609375 -144.0625 C 36.296875 -158.832031 48.320312 -170.472656 63.6875 -178.984375 C 79.0625 -187.492188 96.304688 -191.75 115.421875 -191.75 C 132.441406 -191.75 147.894531 -188.40625 161.78125 -181.71875 C 175.675781 -175.03125 187.144531 -165.257812 196.1875 -152.40625 L 181.328125 -141.203125 C 173.335938 -151.796875 163.738281 -159.828125 152.53125 -165.296875 C 141.332031 -170.773438 129.046875 -173.515625 115.671875 -173.515625 C 100.910156 -173.515625 87.320312 -170.082031 74.90625 -163.21875 C 62.488281 -156.363281 52.585938 -146.8125 45.203125 -134.5625 C 37.816406 -122.320312 34.125 -108.472656 34.125 -93.015625 C 34.125 -77.722656 37.726562 -64 44.9375 -51.84375 C 52.144531 -39.6875 62.046875 -30.132812 74.640625 -23.1875 C 87.234375 -16.238281 101.257812 -12.765625 116.71875 -12.765625 C 129.738281 -12.765625 141.765625 -15.367188 152.796875 -20.578125 C 163.828125 -25.785156 173.6875 -33.515625 182.375 -43.765625 L 197.21875 -32.5625 C 187.664062 -20.40625 175.898438 -11.203125 161.921875 -4.953125 C 147.941406 1.296875 132.441406 4.421875 115.421875 4.421875 Z M 115.421875 4.421875 "/></g></g></g><g fill="#fffefa" fill-opacity="1"><g transform="translate(214.84637, 291.152815)"><g><path d="M 41.421875 -187.0625 L 41.421875 -18.234375 L 113.328125 -18.234375 L 113.328125 0 L 22.671875 0 L 22.671875 -187.0625 Z M 41.421875 -187.0625 "/></g></g></g></g></g><g fill="#fffefa" fill-opacity="1"><g transform="translate(529.878391, 1012.669981)"><g><path d="M 3.1875 0 L 3.1875 -28.171875 L 13.453125 -28.171875 C 15.335938 -28.171875 16.984375 -27.789062 18.390625 -27.03125 C 19.796875 -26.269531 20.890625 -25.21875 21.671875 -23.875 C 22.460938 -22.539062 22.859375 -21.007812 22.859375 -19.28125 C 22.859375 -17.988281 22.585938 -16.8125 22.046875 -15.75 C 21.515625 -14.6875 20.78125 -13.769531 19.84375 -13 C 18.914062 -12.226562 17.828125 -11.628906 16.578125 -11.203125 C 15.335938 -10.785156 14.007812 -10.578125 12.59375 -10.578125 L 6.140625 -10.578125 L 6.140625 -15.46875 L 13.421875 -15.46875 C 14.234375 -15.46875 14.941406 -15.632812 15.546875 -15.96875 C 16.148438 -16.3125 16.628906 -16.773438 16.984375 -17.359375 C 17.335938 -17.953125 17.515625 -18.617188 17.515625 -19.359375 C 17.515625 -20.035156 17.363281 -20.671875 17.0625 -21.265625 C 16.757812 -21.859375 16.304688 -22.335938 15.703125 -22.703125 C 15.097656 -23.066406 14.363281 -23.25 13.5 -23.25 L 8.5 -23.25 L 8.5 0 Z M 9.40625 -12.78125 L 15.625 -12.78125 L 24.359375 -0.3125 L 24.359375 0 L 18.25 0 Z M 9.40625 -12.78125 "/></g></g></g><g fill="#fffefa" fill-opacity="1"><g transform="translate(555.009077, 1012.669981)"><g><path d="M 3.1875 0 L 3.1875 -28.171875 L 21.046875 -28.171875 L 21.046875 -23.140625 L 8.5 -23.140625 L 8.5 -5.03125 L 21.046875 -5.03125 L 21.046875 0 Z M 6.140625 -11.5625 L 6.140625 -16.609375 L 19.796875 -16.609375 L 19.796875 -11.5625 Z M 6.140625 -11.5625 "/></g></g></g><g fill="#fffefa" fill-opacity="1"><g transform="translate(578.05537, 1012.669981)"><g><path d="M 0.59375 0 L 11.140625 -28.171875 L 17.234375 -28.171875 L 27.8125 0 L 21.953125 0 L 15.390625 -18.6875 L 14.359375 -22.078125 L 14.046875 -22.078125 L 13.015625 -18.6875 L 6.453125 0 Z M 13.890625 -6.734375 L 13.890625 -11.609375 L 20.453125 -11.609375 L 22.1875 -6.734375 Z M 6.21875 -6.734375 L 7.90625 -11.609375 L 13.890625 -11.609375 L 13.890625 -6.734375 Z M 6.21875 -6.734375 "/></g></g></g><g fill="#fffefa" fill-opacity="1"><g transform="translate(606.4503, 1012.669981)"><g><path d="M 3.1875 0 L 3.1875 -28.171875 L 8.5 -28.171875 L 8.5 -5.03125 L 20.421875 -5.03125 L 20.421875 0 Z M 3.1875 0 "/></g></g></g><g fill="#fffefa" fill-opacity="1"><g transform="translate(627.962798, 1012.669981)"><g/></g></g><g fill="#fffefa" fill-opacity="1"><g transform="translate(637.165587, 1012.669981)"><g><path d="M 8.734375 0 L 8.734375 -25.5 L 14.046875 -25.5 L 14.046875 0 Z M 0.859375 -23.140625 L 0.859375 -28.171875 L 21.921875 -28.171875 L 21.921875 -23.140625 Z M 0.859375 -23.140625 "/></g></g></g><g fill="#fffefa" fill-opacity="1"><g transform="translate(659.936592, 1012.669981)"><g><path d="M 3.1875 0 L 3.1875 -28.171875 L 8.5 -28.171875 L 8.5 0 Z M 3.1875 0 "/></g></g></g><g fill="#fffefa" fill-opacity="1"><g transform="translate(671.617049, 1012.669981)"><g><path d="M 3.1875 0 L 3.1875 -28.171875 L 10.03125 -28.171875 L 17.515625 -8.375 L 17.828125 -8.375 L 25.296875 -28.171875 L 32.1875 -28.171875 L 32.1875 0 L 26.90625 0 L 26.90625 -13.890625 L 27.21875 -18.5625 L 26.90625 -18.5625 L 19.75 0 L 15.625 0 L 8.421875 -18.5625 L 8.109375 -18.5625 L 8.421875 -13.890625 L 8.421875 0 Z M 3.1875 0 "/></g></g></g><g fill="#fffefa" fill-opacity="1"><g transform="translate(706.973064, 1012.669981)"><g><path d="M 3.1875 0 L 3.1875 -28.171875 L 21.046875 -28.171875 L 21.046875 -23.140625 L 8.5 -23.140625 L 8.5 -5.03125 L 21.046875 -5.03125 L 21.046875 0 Z M 6.140625 -11.5625 L 6.140625 -16.609375 L 19.796875 -16.609375 L 19.796875 -11.5625 Z M 6.140625 -11.5625 "/></g></g></g><g fill="#fffefa" fill-opacity="1"><g transform="translate(730.019357, 1012.669981)"><g/></g></g><g fill="#fffefa" fill-opacity="1"><g transform="translate(739.222146, 1012.669981)"><g><path d="M 16.53125 0.625 C 14.457031 0.625 12.519531 0.253906 10.71875 -0.484375 C 8.925781 -1.234375 7.359375 -2.273438 6.015625 -3.609375 C 4.679688 -4.953125 3.640625 -6.515625 2.890625 -8.296875 C 2.140625 -10.085938 1.765625 -12.015625 1.765625 -14.078125 C 1.765625 -16.148438 2.140625 -18.078125 2.890625 -19.859375 C 3.640625 -21.648438 4.679688 -23.210938 6.015625 -24.546875 C 7.359375 -25.890625 8.925781 -26.929688 10.71875 -27.671875 C 12.519531 -28.421875 14.457031 -28.796875 16.53125 -28.796875 C 18.019531 -28.796875 19.394531 -28.617188 20.65625 -28.265625 C 21.914062 -27.910156 23.078125 -27.390625 24.140625 -26.703125 C 25.203125 -26.023438 26.175781 -25.191406 27.0625 -24.203125 L 23.328125 -20.578125 C 22.773438 -21.234375 22.164062 -21.796875 21.5 -22.265625 C 20.832031 -22.742188 20.09375 -23.113281 19.28125 -23.375 C 18.46875 -23.632812 17.5625 -23.765625 16.5625 -23.765625 C 14.800781 -23.765625 13.207031 -23.363281 11.78125 -22.5625 C 10.351562 -21.757812 9.21875 -20.632812 8.375 -19.1875 C 7.539062 -17.75 7.125 -16.046875 7.125 -14.078125 C 7.125 -12.140625 7.539062 -10.441406 8.375 -8.984375 C 9.21875 -7.535156 10.351562 -6.410156 11.78125 -5.609375 C 13.207031 -4.804688 14.800781 -4.40625 16.5625 -4.40625 C 18.132812 -4.40625 19.53125 -4.734375 20.75 -5.390625 C 21.96875 -6.046875 23.050781 -6.953125 24 -8.109375 L 27.78125 -4.53125 C 26.863281 -3.425781 25.828125 -2.484375 24.671875 -1.703125 C 23.515625 -0.929688 22.253906 -0.351562 20.890625 0.03125 C 19.523438 0.425781 18.070312 0.625 16.53125 0.625 Z M 16.53125 0.625 "/></g></g></g><g fill="#fffefa" fill-opacity="1"><g transform="translate(768.521604, 1012.669981)"><g><path d="M 3.1875 0 L 3.1875 -28.171875 L 8.5 -28.171875 L 8.5 -5.03125 L 20.421875 -5.03125 L 20.421875 0 Z M 3.1875 0 "/></g></g></g><g fill="#fffefa" fill-opacity="1"><g transform="translate(788.460598, 1012.669981)"><g><path d="M 16.484375 0.625 C 14.390625 0.625 12.441406 0.253906 10.640625 -0.484375 C 8.847656 -1.234375 7.285156 -2.285156 5.953125 -3.640625 C 4.628906 -4.992188 3.597656 -6.5625 2.859375 -8.34375 C 2.128906 -10.125 1.765625 -12.035156 1.765625 -14.078125 C 1.765625 -16.128906 2.128906 -18.046875 2.859375 -19.828125 C 3.597656 -21.609375 4.628906 -23.175781 5.953125 -24.53125 C 7.285156 -25.882812 8.847656 -26.929688 10.640625 -27.671875 C 12.441406 -28.421875 14.390625 -28.796875 16.484375 -28.796875 C 18.578125 -28.796875 20.515625 -28.421875 22.296875 -27.671875 C 24.085938 -26.929688 25.648438 -25.882812 26.984375 -24.53125 C 28.328125 -23.175781 29.363281 -21.609375 30.09375 -19.828125 C 30.832031 -18.046875 31.203125 -16.128906 31.203125 -14.078125 C 31.203125 -12.035156 30.832031 -10.125 30.09375 -8.34375 C 29.363281 -6.5625 28.328125 -4.992188 26.984375 -3.640625 C 25.648438 -2.285156 24.085938 -1.234375 22.296875 -0.484375 C 20.515625 0.253906 18.578125 0.625 16.484375 0.625 Z M 16.484375 -4.40625 C 18.242188 -4.40625 19.832031 -4.8125 21.25 -5.625 C 22.664062 -6.4375 23.789062 -7.570312 24.625 -9.03125 C 25.46875 -10.488281 25.890625 -12.171875 25.890625 -14.078125 C 25.890625 -16.023438 25.46875 -17.71875 24.625 -19.15625 C 23.789062 -20.601562 22.664062 -21.734375 21.25 -22.546875 C 19.832031 -23.359375 18.242188 -23.765625 16.484375 -23.765625 C 14.753906 -23.765625 13.179688 -23.359375 11.765625 -22.546875 C 10.347656 -21.734375 9.21875 -20.601562 8.375 -19.15625 C 7.539062 -17.71875 7.125 -16.023438 7.125 -14.078125 C 7.125 -12.171875 7.539062 -10.488281 8.375 -9.03125 C 9.21875 -7.570312 10.347656 -6.4375 11.765625 -5.625 C 13.179688 -4.8125 14.753906 -4.40625 16.484375 -4.40625 Z M 16.484375 -4.40625 "/></g></g></g><g fill="#fffefa" fill-opacity="1"><g transform="translate(821.417611, 1012.669981)"><g><path d="M 16.53125 0.625 C 14.457031 0.625 12.519531 0.253906 10.71875 -0.484375 C 8.925781 -1.234375 7.359375 -2.273438 6.015625 -3.609375 C 4.679688 -4.953125 3.640625 -6.515625 2.890625 -8.296875 C 2.140625 -10.085938 1.765625 -12.015625 1.765625 -14.078125 C 1.765625 -16.148438 2.140625 -18.078125 2.890625 -19.859375 C 3.640625 -21.648438 4.679688 -23.210938 6.015625 -24.546875 C 7.359375 -25.890625 8.925781 -26.929688 10.71875 -27.671875 C 12.519531 -28.421875 14.457031 -28.796875 16.53125 -28.796875 C 18.019531 -28.796875 19.394531 -28.617188 20.65625 -28.265625 C 21.914062 -27.910156 23.078125 -27.390625 24.140625 -26.703125 C 25.203125 -26.023438 26.175781 -25.191406 27.0625 -24.203125 L 23.328125 -20.578125 C 22.773438 -21.234375 22.164062 -21.796875 21.5 -22.265625 C 20.832031 -22.742188 20.09375 -23.113281 19.28125 -23.375 C 18.46875 -23.632812 17.5625 -23.765625 16.5625 -23.765625 C 14.800781 -23.765625 13.207031 -23.363281 11.78125 -22.5625 C 10.351562 -21.757812 9.21875 -20.632812 8.375 -19.1875 C 7.539062 -17.75 7.125 -16.046875 7.125 -14.078125 C 7.125 -12.140625 7.539062 -10.441406 8.375 -8.984375 C 9.21875 -7.535156 10.351562 -6.410156 11.78125 -5.609375 C 13.207031 -4.804688 14.800781 -4.40625 16.5625 -4.40625 C 18.132812 -4.40625 19.53125 -4.734375 20.75 -5.390625 C 21.96875 -6.046875 23.050781 -6.953125 24 -8.109375 L 27.78125 -4.53125 C 26.863281 -3.425781 25.828125 -2.484375 24.671875 -1.703125 C 23.515625 -0.929688 22.253906 -0.351562 20.890625 0.03125 C 19.523438 0.425781 18.070312 0.625 16.53125 0.625 Z M 16.53125 0.625 "/></g></g></g><g fill="#fffefa" fill-opacity="1"><g transform="translate(850.717069, 1012.669981)"><g><path d="M 3.1875 0 L 3.1875 -28.171875 L 8.5 -28.171875 L 8.5 0 Z M 20.109375 0 L 10.34375 -13.890625 L 14 -18.09375 L 26.59375 -0.3125 L 26.59375 0 Z M 5.9375 -5.1875 L 6.015625 -12.59375 L 19.125 -28.171875 L 25.53125 -28.171875 L 25.53125 -27.859375 Z M 5.9375 -5.1875 "/></g></g></g><g fill="#fffefa" fill-opacity="1"><g transform="translate(877.066791, 1012.669981)"><g><path d="M 11.6875 0.625 C 10.082031 0.625 8.578125 0.320312 7.171875 -0.28125 C 5.773438 -0.882812 4.554688 -1.78125 3.515625 -2.96875 C 2.484375 -4.164062 1.707031 -5.628906 1.1875 -7.359375 L 6.171875 -9.328125 C 6.546875 -7.929688 7.191406 -6.757812 8.109375 -5.8125 C 9.023438 -4.875 10.226562 -4.40625 11.71875 -4.40625 C 12.457031 -4.40625 13.15625 -4.53125 13.8125 -4.78125 C 14.46875 -5.03125 15 -5.40625 15.40625 -5.90625 C 15.8125 -6.40625 16.015625 -7.019531 16.015625 -7.75 C 16.015625 -8.457031 15.84375 -9.066406 15.5 -9.578125 C 15.15625 -10.085938 14.582031 -10.570312 13.78125 -11.03125 C 12.988281 -11.488281 11.910156 -11.96875 10.546875 -12.46875 L 8.8125 -13.09375 C 8.050781 -13.382812 7.28125 -13.742188 6.5 -14.171875 C 5.726562 -14.609375 5.019531 -15.148438 4.375 -15.796875 C 3.738281 -16.441406 3.222656 -17.179688 2.828125 -18.015625 C 2.441406 -18.859375 2.25 -19.816406 2.25 -20.890625 C 2.25 -22.359375 2.628906 -23.6875 3.390625 -24.875 C 4.148438 -26.070312 5.207031 -27.023438 6.5625 -27.734375 C 7.925781 -28.441406 9.515625 -28.796875 11.328125 -28.796875 C 13.210938 -28.796875 14.769531 -28.472656 16 -27.828125 C 17.238281 -27.191406 18.207031 -26.414062 18.90625 -25.5 C 19.601562 -24.582031 20.09375 -23.6875 20.375 -22.8125 L 15.703125 -20.859375 C 15.546875 -21.378906 15.28125 -21.875 14.90625 -22.34375 C 14.539062 -22.820312 14.066406 -23.203125 13.484375 -23.484375 C 12.910156 -23.773438 12.21875 -23.921875 11.40625 -23.921875 C 10.644531 -23.921875 9.960938 -23.796875 9.359375 -23.546875 C 8.753906 -23.296875 8.28125 -22.953125 7.9375 -22.515625 C 7.601562 -22.085938 7.4375 -21.585938 7.4375 -21.015625 C 7.4375 -20.171875 7.796875 -19.445312 8.515625 -18.84375 C 9.234375 -18.238281 10.394531 -17.675781 12 -17.15625 L 13.765625 -16.5625 C 14.765625 -16.21875 15.71875 -15.816406 16.625 -15.359375 C 17.53125 -14.898438 18.335938 -14.328125 19.046875 -13.640625 C 19.753906 -12.960938 20.3125 -12.148438 20.71875 -11.203125 C 21.125 -10.265625 21.328125 -9.140625 21.328125 -7.828125 C 21.328125 -6.390625 21.035156 -5.128906 20.453125 -4.046875 C 19.878906 -2.972656 19.117188 -2.09375 18.171875 -1.40625 C 17.234375 -0.726562 16.191406 -0.222656 15.046875 0.109375 C 13.910156 0.453125 12.789062 0.625 11.6875 0.625 Z M 11.6875 0.625 "/></g></g></g><g fill="#fffefa" fill-opacity="1"><g transform="translate(435.554177, 1055.419977)"><g><path d="M 3.1875 0 L 3.1875 -28.171875 L 21.046875 -28.171875 L 21.046875 -23.140625 L 8.5 -23.140625 L 8.5 0 Z M 6.140625 -11.25 L 6.140625 -16.28125 L 19.796875 -16.28125 L 19.796875 -11.25 Z M 6.140625 -11.25 "/></g></g></g><g fill="#fffefa" fill-opacity="1"><g transform="translate(457.223803, 1055.419977)"><g><path d="M 16.484375 0.625 C 14.390625 0.625 12.441406 0.253906 10.640625 -0.484375 C 8.847656 -1.234375 7.285156 -2.285156 5.953125 -3.640625 C 4.628906 -4.992188 3.597656 -6.5625 2.859375 -8.34375 C 2.128906 -10.125 1.765625 -12.035156 1.765625 -14.078125 C 1.765625 -16.128906 2.128906 -18.046875 2.859375 -19.828125 C 3.597656 -21.609375 4.628906 -23.175781 5.953125 -24.53125 C 7.285156 -25.882812 8.847656 -26.929688 10.640625 -27.671875 C 12.441406 -28.421875 14.390625 -28.796875 16.484375 -28.796875 C 18.578125 -28.796875 20.515625 -28.421875 22.296875 -27.671875 C 24.085938 -26.929688 25.648438 -25.882812 26.984375 -24.53125 C 28.328125 -23.175781 29.363281 -21.609375 30.09375 -19.828125 C 30.832031 -18.046875 31.203125 -16.128906 31.203125 -14.078125 C 31.203125 -12.035156 30.832031 -10.125 30.09375 -8.34375 C 29.363281 -6.5625 28.328125 -4.992188 26.984375 -3.640625 C 25.648438 -2.285156 24.085938 -1.234375 22.296875 -0.484375 C 20.515625 0.253906 18.578125 0.625 16.484375 0.625 Z M 16.484375 -4.40625 C 18.242188 -4.40625 19.832031 -4.8125 21.25 -5.625 C 22.664062 -6.4375 23.789062 -7.570312 24.625 -9.03125 C 25.46875 -10.488281 25.890625 -12.171875 25.890625 -14.078125 C 25.890625 -16.023438 25.46875 -17.71875 24.625 -19.15625 C 23.789062 -20.601562 22.664062 -21.734375 21.25 -22.546875 C 19.832031 -23.359375 18.242188 -23.765625 16.484375 -23.765625 C 14.753906 -23.765625 13.179688 -23.359375 11.765625 -22.546875 C 10.347656 -21.734375 9.21875 -20.601562 8.375 -19.15625 C 7.539062 -17.71875 7.125 -16.023438 7.125 -14.078125 C 7.125 -12.171875 7.539062 -10.488281 8.375 -9.03125 C 9.21875 -7.570312 10.347656 -6.4375 11.765625 -5.625 C 13.179688 -4.8125 14.753906 -4.40625 16.484375 -4.40625 Z M 16.484375 -4.40625 "/></g></g></g><g fill="#fffefa" fill-opacity="1"><g transform="translate(490.180793, 1055.419977)"><g><path d="M 3.1875 0 L 3.1875 -28.171875 L 13.453125 -28.171875 C 15.335938 -28.171875 16.984375 -27.789062 18.390625 -27.03125 C 19.796875 -26.269531 20.890625 -25.21875 21.671875 -23.875 C 22.460938 -22.539062 22.859375 -21.007812 22.859375 -19.28125 C 22.859375 -17.988281 22.585938 -16.8125 22.046875 -15.75 C 21.515625 -14.6875 20.78125 -13.769531 19.84375 -13 C 18.914062 -12.226562 17.828125 -11.628906 16.578125 -11.203125 C 15.335938 -10.785156 14.007812 -10.578125 12.59375 -10.578125 L 6.140625 -10.578125 L 6.140625 -15.46875 L 13.421875 -15.46875 C 14.234375 -15.46875 14.941406 -15.632812 15.546875 -15.96875 C 16.148438 -16.3125 16.628906 -16.773438 16.984375 -17.359375 C 17.335938 -17.953125 17.515625 -18.617188 17.515625 -19.359375 C 17.515625 -20.035156 17.363281 -20.671875 17.0625 -21.265625 C 16.757812 -21.859375 16.304688 -22.335938 15.703125 -22.703125 C 15.097656 -23.066406 14.363281 -23.25 13.5 -23.25 L 8.5 -23.25 L 8.5 0 Z M 9.40625 -12.78125 L 15.625 -12.78125 L 24.359375 -0.3125 L 24.359375 0 L 18.25 0 Z M 9.40625 -12.78125 "/></g></g></g><g fill="#fffefa" fill-opacity="1"><g transform="translate(515.311479, 1055.419977)"><g/></g></g><g fill="#fffefa" fill-opacity="1"><g transform="translate(524.514267, 1055.419977)"><g><path d="M 3.1875 0 L 3.1875 -28.171875 L 12.703125 -28.171875 C 15.691406 -28.171875 18.269531 -27.570312 20.4375 -26.375 C 22.601562 -25.1875 24.269531 -23.535156 25.4375 -21.421875 C 26.601562 -19.304688 27.1875 -16.859375 27.1875 -14.078125 C 27.1875 -11.304688 26.601562 -8.859375 25.4375 -6.734375 C 24.269531 -4.609375 22.601562 -2.953125 20.4375 -1.765625 C 18.269531 -0.585938 15.691406 0 12.703125 0 Z M 8.5 -5.03125 L 12.46875 -5.03125 C 14.539062 -5.03125 16.269531 -5.40625 17.65625 -6.15625 C 19.050781 -6.90625 20.09375 -7.960938 20.78125 -9.328125 C 21.476562 -10.691406 21.828125 -12.273438 21.828125 -14.078125 C 21.828125 -15.921875 21.476562 -17.515625 20.78125 -18.859375 C 20.09375 -20.210938 19.050781 -21.265625 17.65625 -22.015625 C 16.269531 -22.765625 14.539062 -23.140625 12.46875 -23.140625 L 8.5 -23.140625 Z M 8.5 -5.03125 "/></g></g></g><g fill="#fffefa" fill-opacity="1"><g transform="translate(553.459795, 1055.419977)"><g><path d="M 3.1875 0 L 3.1875 -28.171875 L 8.5 -28.171875 L 8.5 0 Z M 3.1875 0 "/></g></g></g><g fill="#fffefa" fill-opacity="1"><g transform="translate(565.140252, 1055.419977)"><g><path d="M 3.1875 0 L 3.1875 -28.171875 L 21.046875 -28.171875 L 21.046875 -23.140625 L 8.5 -23.140625 L 8.5 0 Z M 6.140625 -11.25 L 6.140625 -16.28125 L 19.796875 -16.28125 L 19.796875 -11.25 Z M 6.140625 -11.25 "/></g></g></g><g fill="#fffefa" fill-opacity="1"><g transform="translate(587.596625, 1055.419977)"><g><path d="M 3.1875 0 L 3.1875 -28.171875 L 21.046875 -28.171875 L 21.046875 -23.140625 L 8.5 -23.140625 L 8.5 0 Z M 6.140625 -11.25 L 6.140625 -16.28125 L 19.796875 -16.28125 L 19.796875 -11.25 Z M 6.140625 -11.25 "/></g></g></g><g fill="#fffefa" fill-opacity="1"><g transform="translate(610.052998, 1055.419977)"><g><path d="M 3.1875 0 L 3.1875 -28.171875 L 13.453125 -28.171875 C 15.335938 -28.171875 16.984375 -27.789062 18.390625 -27.03125 C 19.796875 -26.269531 20.890625 -25.21875 21.671875 -23.875 C 22.460938 -22.539062 22.859375 -21.007812 22.859375 -19.28125 C 22.859375 -17.988281 22.585938 -16.8125 22.046875 -15.75 C 21.515625 -14.6875 20.78125 -13.769531 19.84375 -13 C 18.914062 -12.226562 17.828125 -11.628906 16.578125 -11.203125 C 15.335938 -10.785156 14.007812 -10.578125 12.59375 -10.578125 L 6.140625 -10.578125 L 6.140625 -15.46875 L 13.421875 -15.46875 C 14.234375 -15.46875 14.941406 -15.632812 15.546875 -15.96875 C 16.148438 -16.3125 16.628906 -16.773438 16.984375 -17.359375 C 17.335938 -17.953125 17.515625 -18.617188 17.515625 -19.359375 C 17.515625 -20.035156 17.363281 -20.671875 17.0625 -21.265625 C 16.757812 -21.859375 16.304688 -22.335938 15.703125 -22.703125 C 15.097656 -23.066406 14.363281 -23.25 13.5 -23.25 L 8.5 -23.25 L 8.5 0 Z M 9.40625 -12.78125 L 15.625 -12.78125 L 24.359375 -0.3125 L 24.359375 0 L 18.25 0 Z M 9.40625 -12.78125 "/></g></g></g><g fill="#fffefa" fill-opacity="1"><g transform="translate(635.183683, 1055.419977)"><g><path d="M 3.1875 0 L 3.1875 -28.171875 L 21.046875 -28.171875 L 21.046875 -23.140625 L 8.5 -23.140625 L 8.5 -5.03125 L 21.046875 -5.03125 L 21.046875 0 Z M 6.140625 -11.5625 L 6.140625 -16.609375 L 19.796875 -16.609375 L 19.796875 -11.5625 Z M 6.140625 -11.5625 "/></g></g></g><g fill="#fffefa" fill-opacity="1"><g transform="translate(658.229977, 1055.419977)"><g><path d="M 3.1875 0 L 3.1875 -28.171875 L 9.359375 -28.171875 L 20.6875 -9.28125 L 21.015625 -9.28125 L 20.6875 -14.71875 L 20.6875 -28.171875 L 25.96875 -28.171875 L 25.96875 0 L 20.375 0 L 8.421875 -19.953125 L 8.109375 -19.953125 L 8.421875 -14.515625 L 8.421875 0 Z M 3.1875 0 "/></g></g></g><g fill="#fffefa" fill-opacity="1"><g transform="translate(687.372148, 1055.419977)"><g><path d="M 8.734375 0 L 8.734375 -25.5 L 14.046875 -25.5 L 14.046875 0 Z M 0.859375 -23.140625 L 0.859375 -28.171875 L 21.921875 -28.171875 L 21.921875 -23.140625 Z M 0.859375 -23.140625 "/></g></g></g><g fill="#fffefa" fill-opacity="1"><g transform="translate(710.143142, 1055.419977)"><g/></g></g><g fill="#fffefa" fill-opacity="1"><g transform="translate(719.345931, 1055.419977)"><g><path d="M 8.734375 0 L 8.734375 -25.5 L 14.046875 -25.5 L 14.046875 0 Z M 0.859375 -23.140625 L 0.859375 -28.171875 L 21.921875 -28.171875 L 21.921875 -23.140625 Z M 0.859375 -23.140625 "/></g></g></g><g fill="#fffefa" fill-opacity="1"><g transform="translate(742.116925, 1055.419977)"><g><path d="M 3.1875 0 L 3.1875 -28.171875 L 8.5 -28.171875 L 8.5 0 Z M 3.1875 0 "/></g></g></g><g fill="#fffefa" fill-opacity="1"><g transform="translate(753.797405, 1055.419977)"><g><path d="M 3.1875 0 L 3.1875 -28.171875 L 10.03125 -28.171875 L 17.515625 -8.375 L 17.828125 -8.375 L 25.296875 -28.171875 L 32.1875 -28.171875 L 32.1875 0 L 26.90625 0 L 26.90625 -13.890625 L 27.21875 -18.5625 L 26.90625 -18.5625 L 19.75 0 L 15.625 0 L 8.421875 -18.5625 L 8.109375 -18.5625 L 8.421875 -13.890625 L 8.421875 0 Z M 3.1875 0 "/></g></g></g><g fill="#fffefa" fill-opacity="1"><g transform="translate(789.15342, 1055.419977)"><g><path d="M 3.1875 0 L 3.1875 -28.171875 L 21.046875 -28.171875 L 21.046875 -23.140625 L 8.5 -23.140625 L 8.5 -5.03125 L 21.046875 -5.03125 L 21.046875 0 Z M 6.140625 -11.5625 L 6.140625 -16.609375 L 19.796875 -16.609375 L 19.796875 -11.5625 Z M 6.140625 -11.5625 "/></g></g></g><g fill="#fffefa" fill-opacity="1"><g transform="translate(812.199713, 1055.419977)"><g/></g></g><g fill="#fffefa" fill-opacity="1"><g transform="translate(821.402502, 1055.419977)"><g><path d="M 1.578125 0 L 1.578125 -5.34375 L 15.859375 -23.140625 L 2.203125 -23.140625 L 2.203125 -28.171875 L 22.03125 -28.171875 L 22.03125 -22.8125 L 7.90625 -5.03125 L 22.1875 -5.03125 L 22.1875 0 Z M 1.578125 0 "/></g></g></g><g fill="#fffefa" fill-opacity="1"><g transform="translate(844.133899, 1055.419977)"><g><path d="M 16.484375 0.625 C 14.390625 0.625 12.441406 0.253906 10.640625 -0.484375 C 8.847656 -1.234375 7.285156 -2.285156 5.953125 -3.640625 C 4.628906 -4.992188 3.597656 -6.5625 2.859375 -8.34375 C 2.128906 -10.125 1.765625 -12.035156 1.765625 -14.078125 C 1.765625 -16.128906 2.128906 -18.046875 2.859375 -19.828125 C 3.597656 -21.609375 4.628906 -23.175781 5.953125 -24.53125 C 7.285156 -25.882812 8.847656 -26.929688 10.640625 -27.671875 C 12.441406 -28.421875 14.390625 -28.796875 16.484375 -28.796875 C 18.578125 -28.796875 20.515625 -28.421875 22.296875 -27.671875 C 24.085938 -26.929688 25.648438 -25.882812 26.984375 -24.53125 C 28.328125 -23.175781 29.363281 -21.609375 30.09375 -19.828125 C 30.832031 -18.046875 31.203125 -16.128906 31.203125 -14.078125 C 31.203125 -12.035156 30.832031 -10.125 30.09375 -8.34375 C 29.363281 -6.5625 28.328125 -4.992188 26.984375 -3.640625 C 25.648438 -2.285156 24.085938 -1.234375 22.296875 -0.484375 C 20.515625 0.253906 18.578125 0.625 16.484375 0.625 Z M 16.484375 -4.40625 C 18.242188 -4.40625 19.832031 -4.8125 21.25 -5.625 C 22.664062 -6.4375 23.789062 -7.570312 24.625 -9.03125 C 25.46875 -10.488281 25.890625 -12.171875 25.890625 -14.078125 C 25.890625 -16.023438 25.46875 -17.71875 24.625 -19.15625 C 23.789062 -20.601562 22.664062 -21.734375 21.25 -22.546875 C 19.832031 -23.359375 18.242188 -23.765625 16.484375 -23.765625 C 14.753906 -23.765625 13.179688 -23.359375 11.765625 -22.546875 C 10.347656 -21.734375 9.21875 -20.601562 8.375 -19.15625 C 7.539062 -17.71875 7.125 -16.023438 7.125 -14.078125 C 7.125 -12.171875 7.539062 -10.488281 8.375 -9.03125 C 9.21875 -7.570312 10.347656 -6.4375 11.765625 -5.625 C 13.179688 -4.8125 14.753906 -4.40625 16.484375 -4.40625 Z M 16.484375 -4.40625 "/></g></g></g><g fill="#fffefa" fill-opacity="1"><g transform="translate(877.090867, 1055.419977)"><g><path d="M 3.1875 0 L 3.1875 -28.171875 L 9.359375 -28.171875 L 20.6875 -9.28125 L 21.015625 -9.28125 L 20.6875 -14.71875 L 20.6875 -28.171875 L 25.96875 -28.171875 L 25.96875 0 L 20.375 0 L 8.421875 -19.953125 L 8.109375 -19.953125 L 8.421875 -14.515625 L 8.421875 0 Z M 3.1875 0 "/></g></g></g><g fill="#fffefa" fill-opacity="1"><g transform="translate(906.233061, 1055.419977)"><g><path d="M 3.1875 0 L 3.1875 -28.171875 L 21.046875 -28.171875 L 21.046875 -23.140625 L 8.5 -23.140625 L 8.5 -5.03125 L 21.046875 -5.03125 L 21.046875 0 Z M 6.140625 -11.5625 L 6.140625 -16.609375 L 19.796875 -16.609375 L 19.796875 -11.5625 Z M 6.140625 -11.5625 "/></g></g></g><g fill="#fffefa" fill-opacity="1"><g transform="translate(928.689296, 1055.419977)"><g><path d="M 11.6875 0.625 C 10.082031 0.625 8.578125 0.320312 7.171875 -0.28125 C 5.773438 -0.882812 4.554688 -1.78125 3.515625 -2.96875 C 2.484375 -4.164062 1.707031 -5.628906 1.1875 -7.359375 L 6.171875 -9.328125 C 6.546875 -7.929688 7.191406 -6.757812 8.109375 -5.8125 C 9.023438 -4.875 10.226562 -4.40625 11.71875 -4.40625 C 12.457031 -4.40625 13.15625 -4.53125 13.8125 -4.78125 C 14.46875 -5.03125 15 -5.40625 15.40625 -5.90625 C 15.8125 -6.40625 16.015625 -7.019531 16.015625 -7.75 C 16.015625 -8.457031 15.84375 -9.066406 15.5 -9.578125 C 15.15625 -10.085938 14.582031 -10.570312 13.78125 -11.03125 C 12.988281 -11.488281 11.910156 -11.96875 10.546875 -12.46875 L 8.8125 -13.09375 C 8.050781 -13.382812 7.28125 -13.742188 6.5 -14.171875 C 5.726562 -14.609375 5.019531 -15.148438 4.375 -15.796875 C 3.738281 -16.441406 3.222656 -17.179688 2.828125 -18.015625 C 2.441406 -18.859375 2.25 -19.816406 2.25 -20.890625 C 2.25 -22.359375 2.628906 -23.6875 3.390625 -24.875 C 4.148438 -26.070312 5.207031 -27.023438 6.5625 -27.734375 C 7.925781 -28.441406 9.515625 -28.796875 11.328125 -28.796875 C 13.210938 -28.796875 14.769531 -28.472656 16 -27.828125 C 17.238281 -27.191406 18.207031 -26.414062 18.90625 -25.5 C 19.601562 -24.582031 20.09375 -23.6875 20.375 -22.8125 L 15.703125 -20.859375 C 15.546875 -21.378906 15.28125 -21.875 14.90625 -22.34375 C 14.539062 -22.820312 14.066406 -23.203125 13.484375 -23.484375 C 12.910156 -23.773438 12.21875 -23.921875 11.40625 -23.921875 C 10.644531 -23.921875 9.960938 -23.796875 9.359375 -23.546875 C 8.753906 -23.296875 8.28125 -22.953125 7.9375 -22.515625 C 7.601562 -22.085938 7.4375 -21.585938 7.4375 -21.015625 C 7.4375 -20.171875 7.796875 -19.445312 8.515625 -18.84375 C 9.234375 -18.238281 10.394531 -17.675781 12 -17.15625 L 13.765625 -16.5625 C 14.765625 -16.21875 15.71875 -15.816406 16.625 -15.359375 C 17.53125 -14.898438 18.335938 -14.328125 19.046875 -13.640625 C 19.753906 -12.960938 20.3125 -12.148438 20.71875 -11.203125 C 21.125 -10.265625 21.328125 -9.140625 21.328125 -7.828125 C 21.328125 -6.390625 21.035156 -5.128906 20.453125 -4.046875 C 19.878906 -2.972656 19.117188 -2.09375 18.171875 -1.40625 C 17.234375 -0.726562 16.191406 -0.222656 15.046875 0.109375 C 13.910156 0.453125 12.789062 0.625 11.6875 0.625 Z M 11.6875 0.625 "/></g></g></g><g fill="#fffefa" fill-opacity="1"><g transform="translate(951.578256, 1055.419977)"><g/></g></g><g fill="#fffefa" fill-opacity="1"><g transform="translate(960.781045, 1055.419977)"><g><path d="M 5.59375 0.234375 C 4.644531 0.234375 3.832031 -0.0976562 3.15625 -0.765625 C 2.488281 -1.429688 2.15625 -2.238281 2.15625 -3.1875 C 2.15625 -4.132812 2.488281 -4.9375 3.15625 -5.59375 C 3.832031 -6.25 4.644531 -6.578125 5.59375 -6.578125 C 6.53125 -6.578125 7.332031 -6.25 8 -5.59375 C 8.675781 -4.9375 9.015625 -4.132812 9.015625 -3.1875 C 9.015625 -2.238281 8.675781 -1.429688 8 -0.765625 C 7.332031 -0.0976562 6.53125 0.234375 5.59375 0.234375 Z M 5.59375 0.234375 "/></g></g></g><g fill="#fffefa" fill-opacity="1"><g transform="translate(971.950249, 1055.419977)"><g><path d="M 5.59375 0.234375 C 4.644531 0.234375 3.832031 -0.0976562 3.15625 -0.765625 C 2.488281 -1.429688 2.15625 -2.238281 2.15625 -3.1875 C 2.15625 -4.132812 2.488281 -4.9375 3.15625 -5.59375 C 3.832031 -6.25 4.644531 -6.578125 5.59375 -6.578125 C 6.53125 -6.578125 7.332031 -6.25 8 -5.59375 C 8.675781 -4.9375 9.015625 -4.132812 9.015625 -3.1875 C 9.015625 -2.238281 8.675781 -1.429688 8 -0.765625 C 7.332031 -0.0976562 6.53125 0.234375 5.59375 0.234375 Z M 5.59375 0.234375 "/></g></g></g><g fill="#fffefa" fill-opacity="1"><g transform="translate(983.119407, 1055.419977)"><g><path d="M 5.59375 0.234375 C 4.644531 0.234375 3.832031 -0.0976562 3.15625 -0.765625 C 2.488281 -1.429688 2.15625 -2.238281 2.15625 -3.1875 C 2.15625 -4.132812 2.488281 -4.9375 3.15625 -5.59375 C 3.832031 -6.25 4.644531 -6.578125 5.59375 -6.578125 C 6.53125 -6.578125 7.332031 -6.25 8 -5.59375 C 8.675781 -4.9375 9.015625 -4.132812 9.015625 -3.1875 C 9.015625 -2.238281 8.675781 -1.429688 8 -0.765625 C 7.332031 -0.0976562 6.53125 0.234375 5.59375 0.234375 Z M 5.59375 0.234375 "/></g></g></g><g transform="matrix(1, 0, 0, 1, 970, 553)"><g clip-path="url(#ea86b10f1c)"><g fill="#fffefa" fill-opacity="1"><g transform="translate(1.60986, 294.240448)"><g><path d="M 116.796875 4.484375 C 96.234375 4.484375 78.21875 0.046875 62.75 -8.828125 C 47.28125 -17.703125 35.414062 -29.738281 27.15625 -44.9375 C 18.894531 -60.144531 14.765625 -77.066406 14.765625 -95.703125 C 14.765625 -114.160156 19.15625 -130.859375 27.9375 -145.796875 C 36.726562 -160.734375 48.898438 -172.507812 64.453125 -181.125 C 80.015625 -189.738281 97.460938 -194.046875 116.796875 -194.046875 C 134.015625 -194.046875 149.65625 -190.660156 163.71875 -183.890625 C 177.78125 -177.117188 189.378906 -167.234375 198.515625 -154.234375 L 183.5 -142.890625 C 175.40625 -153.609375 165.691406 -161.734375 154.359375 -167.265625 C 143.023438 -172.804688 130.59375 -175.578125 117.0625 -175.578125 C 102.113281 -175.578125 88.359375 -172.101562 75.796875 -165.15625 C 63.234375 -158.21875 53.210938 -148.550781 45.734375 -136.15625 C 38.265625 -123.769531 34.53125 -109.757812 34.53125 -94.125 C 34.53125 -78.65625 38.175781 -64.769531 45.46875 -52.46875 C 52.769531 -40.164062 62.789062 -30.5 75.53125 -23.46875 C 88.269531 -16.4375 102.460938 -12.921875 118.109375 -12.921875 C 131.296875 -12.921875 143.46875 -15.554688 154.625 -20.828125 C 165.78125 -26.097656 175.753906 -33.921875 184.546875 -44.296875 L 199.578125 -32.953125 C 189.910156 -20.648438 178 -11.332031 163.84375 -5 C 149.695312 1.320312 134.015625 4.484375 116.796875 4.484375 Z M 116.796875 4.484375 "/></g></g></g><g fill="#fffefa" fill-opacity="1"><g transform="translate(216.208857, 294.240448)"><g><path d="M 150.28125 0 L 126.8125 0 L 41.921875 -93.859375 L 41.921875 0 L 22.9375 0 L 22.9375 -189.296875 L 41.921875 -189.296875 L 41.921875 -110.734375 L 118.375 -189.296875 L 141.578125 -189.296875 L 57.734375 -102.03125 Z M 150.28125 0 "/></g></g></g></g></g></svg>